<svg viewBox="0 0 228 165" fill="none" xmlns="http://www.w3.org/2000/svg">
<path fill-rule="evenodd" clip-rule="evenodd" d="M176.966 77.8921C187.382 81.0923 205.714 87.1427 212.508 95.4192C217.516 101.478 225.152 109.014 224.998 117.817C224.905 123.087 222.41 128.87 218.646 134.894C205.354 156.169 169.537 161.255 146.791 162.259C135.133 162.774 119.807 162.99 109.021 162.999C82.3055 163.022 32.9809 158.35 12.9577 125.588C4.46466 111.715 0.109413 94.7688 0.00247002 77.8691C-0.24488 38.7816 18.081 8.40947 56.8475 1.114C96.976 -6.43779 111.713 26.5523 116.607 35.541C121.502 44.5298 164.806 74.1195 176.966 77.8921Z" fill="#E1F4FF"/>
<mask id="mask0_1091_13070" style="mask-type:luminance" maskUnits="userSpaceOnUse" x="0" y="0" width="225" height="163">
<path fill-rule="evenodd" clip-rule="evenodd" d="M176.966 77.8921C187.382 81.0923 205.714 87.1427 212.508 95.4192C217.516 101.478 225.152 109.014 224.998 117.817C224.905 123.087 222.41 128.87 218.646 134.894C205.354 156.169 169.537 161.255 146.791 162.259C135.133 162.774 119.807 162.99 109.021 162.999C82.3055 163.022 32.9809 158.35 12.9577 125.588C4.46466 111.715 0.109413 94.7688 0.00247002 77.8691C-0.24488 38.7816 18.081 8.40947 56.8475 1.114C96.976 -6.43779 111.713 26.5523 116.607 35.541C121.502 44.5298 164.806 74.1195 176.966 77.8921Z" fill="white"/>
</mask>
<g mask="url(#mask0_1091_13070)">
<circle cx="71.6127" cy="17.5533" r="26.087" fill="#B5E2FF"/>
<path fill-rule="evenodd" clip-rule="evenodd" d="M71.5336 1.74292C71.834 3.04819 71.9763 4.33507 72.087 5.64034C72.1976 6.9456 72.2451 8.23249 72.2451 9.53775C72.2451 10.843 72.1976 12.1299 72.087 13.4352C71.9763 14.7404 71.834 16.0273 71.5336 17.3326C71.2332 16.0273 71.0909 14.7404 70.9802 13.4352C70.8696 12.1299 70.8221 10.843 70.8221 9.53775C70.8221 8.23249 70.8696 6.9456 70.9802 5.64034C71.0909 4.33507 71.249 3.0298 71.5336 1.74292Z" fill="#5AADE4"/>
<path fill-rule="evenodd" clip-rule="evenodd" d="M71.5101 17.4993C70.8264 17.4633 70.2282 17.2837 69.6471 17.0681C69.0659 16.8525 68.519 16.565 68.0062 16.2416C67.4935 15.9182 66.9978 15.5409 66.5363 15.1277C66.0748 14.6965 65.6475 14.2294 65.2886 13.6006C65.9723 13.6365 66.5705 13.8162 67.1516 14.0318C67.7328 14.2474 68.2797 14.5348 68.7925 14.8582C69.3052 15.1816 69.8009 15.5589 70.2624 15.9901C70.7239 16.4213 71.1683 16.8884 71.5101 17.4993Z" fill="#5AADE4"/>
</g>
<mask id="mask1_1091_13070" style="mask-type:luminance" maskUnits="userSpaceOnUse" x="0" y="-1" width="225" height="164">
<path fill-rule="evenodd" clip-rule="evenodd" d="M176.966 77.8922C187.382 81.0924 205.714 87.1428 212.508 95.4193C217.516 101.478 225.152 109.014 224.998 117.817C224.905 123.087 222.41 128.87 218.646 134.895C205.354 156.169 169.537 161.255 146.791 162.259C135.133 162.774 119.807 162.99 109.021 162.999C82.3055 163.022 32.9809 158.35 12.9577 125.588C4.46466 111.715 0.109413 94.7689 0.00247002 77.8692C-0.24488 38.7817 18.081 8.40959 56.8475 1.11411C96.976 -6.43767 109.605 20.0112 114.5 29C115.875 31.5246 120.607 15.2538 126.5 20.0001C128.024 21.2274 143.735 19.7461 146 20.0001C149.244 20.3639 150.349 31.1147 153 33.0001C154.473 34.0476 154.173 46.2342 155 48.5001C155.915 51.0066 151.334 61.8953 153 63.0001C163.962 70.2707 171.85 76.3049 176.966 77.8922Z" fill="white"/>
</mask>
<g mask="url(#mask1_1091_13070)">
<rect x="14" y="129.278" width="209.991" height="46.5706" fill="#B5E2FF"/>
<path fill-rule="evenodd" clip-rule="evenodd" d="M114.527 33.1147C114.536 33.0952 114.544 33.0749 114.552 33.0563C114.606 32.931 114.66 32.8065 114.717 32.6846C114.815 32.4712 114.918 32.2671 115.024 32.069C115.046 32.0267 115.07 31.9852 115.093 31.9428C115.218 31.7176 115.347 31.5008 115.482 31.2942C115.488 31.2832 115.494 31.2714 115.501 31.2612C115.51 31.2485 115.521 31.2358 115.529 31.2231C115.831 30.7676 116.154 30.3577 116.499 29.9869C117.773 28.6169 118.834 27.4086 120.443 26.3349C122.125 25.213 123.947 24.3019 125.848 23.6177C131.61 21.5483 139.073 21.3154 144.567 24.329C148.057 26.2426 150.67 29.3611 151.921 33.1452C154.112 38.4712 153.98 44.5338 153.352 50.157C152.77 55.3602 151.881 60.7658 150.71 65.8581C149.826 69.7006 144.457 70.7505 141.17 71.3272C136.99 72.0596 132.677 72.1925 128.449 71.8775C125.467 71.6565 122.415 71.2332 119.593 70.2035C116.608 69.1138 115.047 67.737 114.712 64.461C114.252 59.9716 113.487 55.5194 113.106 51.0148C112.654 45.6507 112.343 39.8497 113.97 34.6405C114.132 34.1223 114.321 33.616 114.527 33.1147" fill="black"/>
<path fill-rule="evenodd" clip-rule="evenodd" d="M107.873 117.327L107.871 117.326L119.754 80.4082C119.757 80.3966 119.762 80.3857 119.765 80.3741L119.922 79.885L119.936 79.89C120.157 79.3372 120.464 78.8082 120.863 78.3249C122.943 75.802 126.675 75.4433 129.197 77.5233C131.172 79.1519 131.814 81.7899 131.004 84.07L131.01 84.0724L117.997 120.685L117.994 120.685C117.65 121.67 117.015 122.565 116.108 123.228C113.728 124.965 110.392 124.445 108.654 122.066C107.617 120.646 107.387 118.886 107.873 117.327" fill="#CF976F"/>
<path fill-rule="evenodd" clip-rule="evenodd" d="M106.354 116.598C106.354 116.598 108.725 112.096 110.293 106.75C112.75 98.3753 118.325 82.8373 119.788 79.5857C120.86 77.2031 123.57 75.6275 126.72 76.1118C128.539 76.3917 130.09 77.9007 130.747 79.1395C132.003 81.5098 131.483 84.9551 130.453 88.707C129.052 93.8108 120.525 115.93 118.717 120.598C118.386 121.861 117.677 123.037 116.597 123.935C113.841 126.225 109.751 125.849 107.46 123.093C105.906 121.225 105.584 118.742 106.394 116.622C106.38 116.614 106.368 116.607 106.354 116.598Z" fill="#F5F7FC"/>
<path fill-rule="evenodd" clip-rule="evenodd" d="M55.1682 120.294C55.1682 120.294 58.7026 119.606 59.3199 119.594C59.938 119.584 64.1281 119.474 65.392 119.372L78.4911 118.465C79.4929 118.475 80.4895 118.871 81.2336 119.654C82.6937 121.19 82.6319 123.617 81.0976 125.076C80.6163 125.534 80.0475 125.841 79.4481 126.001C79.1191 126.138 78.4343 126.4 77.5553 126.605C76.314 126.896 74.9508 127.72 72.9527 127.106C70.9555 126.492 68.7293 126.408 67.4896 126.645C66.2482 126.883 65.2207 127.179 65.0128 126.905C64.8059 126.632 65.5059 125.496 66.906 125.315C68.3062 125.137 70.2402 125.079 70.2402 125.079C70.2402 125.079 69.4675 123.77 68.6937 123.617C67.9182 123.463 66.3878 123.504 66.1131 123.765C65.8376 124.027 64.1493 126.051 63.8701 126.474C63.5908 126.896 62.7499 127.224 62.357 126.865C62.357 126.865 63.254 125.33 63.6425 124.857C64.0301 124.384 64.5585 123.672 64.5585 123.672C64.5585 123.672 62.8309 124.059 62.0652 124.576C61.3013 125.093 59.8682 126.561 59.3337 126.493C58.7985 126.426 58.51 126.124 58.51 126.124C58.51 126.124 59.2861 125.177 59.7535 124.732C59.7535 124.732 59.4027 124.804 58.9374 125.141C58.4731 125.478 57.7024 126.264 57.2776 126.038C56.8538 125.813 56.7552 125.488 56.7552 125.488C56.7552 125.488 59.1186 123.294 59.7171 122.986C60.3155 122.679 62.7416 121.211 62.7416 121.211L58.5003 121.212C57.2642 121.287 56.129 121.581 55.6321 121.058C55.1359 120.535 55.1682 120.294 55.1682 120.294Z" fill="#CF976F"/>
<path fill-rule="evenodd" clip-rule="evenodd" d="M76.3483 125.354C74.6347 124.11 74.2532 121.712 75.4972 119.998C76.1652 119.076 77.1682 118.545 78.2176 118.439L78.2174 118.435C78.2174 118.435 88.5162 117.524 93.8144 116.807C99.1136 116.092 111.852 113.525 111.852 113.525L111.853 113.527C112.552 113.395 113.288 113.4 114.025 113.568C116.897 114.223 118.694 117.084 118.039 119.956C117.535 122.162 115.729 123.729 113.617 124.042L113.618 124.047C113.618 124.047 109.476 124.706 101.658 124.949C95.3672 125.144 78.8119 126.08 78.8119 126.08L78.8118 126.078C77.9622 126.125 77.091 125.893 76.3483 125.354" fill="#CF976F"/>
<path fill-rule="evenodd" clip-rule="evenodd" d="M78.7968 118.236C78.7968 118.236 87.9512 116.829 94.5027 115.684C100.908 114.564 111.191 112.561 111.191 112.561L111.192 112.568C111.517 112.508 111.85 112.472 112.188 112.463C112.226 112.461 112.265 112.463 112.303 112.462C112.635 112.458 112.97 112.473 113.309 112.522C116.854 113.037 119.312 116.329 118.797 119.875C118.75 120.202 118.67 120.517 118.578 120.824C118.56 120.884 118.543 120.943 118.524 121.001C118.426 121.295 118.309 121.579 118.173 121.851C118.149 121.897 118.123 121.942 118.098 121.989C117.956 122.256 117.799 122.514 117.623 122.756C117.615 122.767 117.607 122.78 117.598 122.792C117.412 123.043 117.205 123.277 116.987 123.498C116.952 123.533 116.918 123.568 116.882 123.602C116.659 123.818 116.422 124.019 116.17 124.201C116.151 124.215 116.13 124.228 116.11 124.241C115.85 124.425 115.577 124.59 115.293 124.734L115.27 124.746C114.982 124.891 114.681 125.009 114.372 125.11C114.34 125.12 114.307 125.131 114.274 125.14C113.961 125.237 113.64 125.312 113.311 125.361C113.311 125.364 108.277 126.42 98.7626 126.43C95.0974 126.434 90.2982 126.454 86.6365 126.43C86.4951 126.429 86.3019 126.699 86.1638 126.698C82.3684 126.67 79.9874 126.812 79.9874 126.812L78.7968 118.236Z" fill="#F5F7FC"/>
<path fill-rule="evenodd" clip-rule="evenodd" d="M123.673 79.5026C123.673 79.5026 124.885 76.7566 129.018 75.2028L129.553 76.9539C129.553 76.9539 134.136 85.7041 136.626 80.4111C137.762 77.9988 138.154 75.8912 138.248 74.3062C146.647 75.0454 154.032 78.1537 156.133 79.1055C156.423 79.2105 156.633 79.3053 156.733 79.3857C156.812 79.4492 156.854 79.6186 156.862 79.8743C155.253 79.1088 151.337 104.058 151.205 105.38C150.697 110.46 150.188 118.081 150.697 120.112C151.205 122.145 151.713 124.177 147.648 125.701C143.584 127.226 140.719 128.828 131.391 128.749C123.753 128.685 121.23 127.226 121.23 127.226C121.23 127.226 117.033 126.198 117.35 123.155C117.667 120.112 118.909 118.167 118.909 114.611C118.909 114.611 118.69 107.92 116.15 102.84C113.609 97.7591 118.182 95.2189 120.214 91.1545C120.214 91.1545 122.657 81.0267 123.673 79.5026Z" fill="#F5F7FC"/>
<path fill-rule="evenodd" clip-rule="evenodd" d="M123.673 79.5026C123.673 79.5026 124.885 76.7566 129.018 75.2028L129.553 76.9539C129.553 76.9539 128.752 88.4035 128.775 90.5957C128.799 92.7871 128.778 93.9361 129.419 93.4568C130.06 92.9767 134.136 85.7041 136.626 80.4111C137.762 77.9988 138.154 75.8912 138.248 74.3062C146.647 75.0454 154.032 78.1537 156.133 79.1055C156.423 79.2105 153.822 78.4688 153.922 78.5493C154.002 78.6128 153.324 78.3631 151.652 78.1859C148.537 77.8558 147.209 81.0169 146.869 81.7195C142.275 91.2077 146.869 100.787 149.067 102.497C149.707 102.995 150.729 103.232 151.259 102.624C151.532 102.311 151.579 101.868 151.652 101.459C151.805 100.596 152.118 99.7752 152.513 98.9776C151.848 101.722 151.337 104.058 151.205 105.38C150.697 110.46 150.189 118.081 150.697 120.112C151.205 122.145 151.713 124.177 147.648 125.701C143.584 127.226 140.719 128.828 131.391 128.749C123.753 128.685 121.23 127.226 121.23 127.226C121.23 127.226 117.031 125.562 117.54 122.515C118.048 119.465 118.909 118.014 118.909 114.458C118.909 114.458 118.69 107.92 116.15 102.84C113.609 97.7591 118.182 95.2189 120.214 91.1545C120.214 91.1545 122.657 81.0267 123.673 79.5026Z" fill="#1A2E52"/>
<path fill-rule="evenodd" clip-rule="evenodd" d="M117.525 105.795C117.892 107.619 118.302 109.432 118.539 111.263C118.773 113.088 118.873 114.943 118.551 116.742C118.306 118.538 117.434 120.258 117.355 122.191C117.308 123.152 117.565 124.135 118.098 124.93C118.626 125.712 119.514 126.339 120.469 126.275C119.522 126.216 118.745 125.576 118.309 124.795C117.849 124.018 117.656 123.104 117.745 122.213C117.888 120.406 118.745 118.706 119.052 116.823C119.343 114.95 119.244 113.045 118.923 111.205C118.601 109.36 118.094 107.567 117.525 105.795" fill="#040818"/>
<path fill-rule="evenodd" clip-rule="evenodd" d="M130.402 114.236C131.929 114.179 133.429 114.393 134.939 114.582C136.45 114.788 137.999 114.86 139.532 114.787C141.065 114.683 142.59 114.472 144.082 114.13C145.553 113.795 147.128 113.36 148.241 112.274C147 113.185 145.487 113.488 144.004 113.748C142.513 114.007 141.012 114.217 139.505 114.281C137.996 114.394 136.495 114.318 134.977 114.195C133.465 114.086 131.913 113.969 130.402 114.236" fill="#040818"/>
<path fill-rule="evenodd" clip-rule="evenodd" d="M132.306 129.539C132.306 129.539 113.304 113.96 106.904 129.539H132.306Z" fill="#5AADE4"/>
<path fill-rule="evenodd" clip-rule="evenodd" d="M157.923 83.606L157.929 83.6049L167.29 121.317C167.545 122.33 167.51 123.427 167.12 124.48C166.095 127.242 163.025 128.651 160.263 127.626C158.614 127.014 157.451 125.674 156.996 124.106L146.521 86.7635C146.517 86.7522 146.514 86.741 146.511 86.7298L146.372 86.2348L146.386 86.2314C146.265 85.6479 146.23 85.038 146.296 84.414C146.637 81.1623 149.55 78.8035 152.802 79.1451C155.347 79.4128 157.338 81.2585 157.923 83.606Z" fill="#CF976F"/>
<path fill-rule="evenodd" clip-rule="evenodd" d="M152.943 112.684C150.059 104.422 146.63 93.8668 146.157 91.0472C145.604 87.7522 143.991 80.6213 151.815 78.915C153.656 78.5135 155.707 78.7575 156.917 79.4645C159.233 80.818 160.606 84.0199 161.707 87.7522C163.383 93.4358 168.7 121.972 168.7 121.972C168.7 121.972 168.477 124.264 155.909 124.154C155.909 124.154 154.78 117.945 152.943 112.684Z" fill="#F5F7FC"/>
<path fill-rule="evenodd" clip-rule="evenodd" d="M167.591 124.185C167.157 126.564 165.206 128.281 162.919 128.529C162.919 128.531 158.755 129.03 150.933 128.971C144.64 128.924 128.061 129.221 128.061 129.221L128.061 129.219C127.21 129.233 126.349 128.967 125.627 128.4C123.962 127.09 123.674 124.68 124.983 123.015C125.687 122.12 126.709 121.627 127.762 121.562L127.762 121.558C127.762 121.558 138.088 121.044 143.411 120.534C148.733 120.022 161.561 117.948 161.561 117.948C162.125 117.87 162.711 117.871 163.302 117.979C166.2 118.509 168.121 121.287 167.591 124.185Z" fill="#CF976F"/>
<path fill-rule="evenodd" clip-rule="evenodd" d="M111.124 124.604C112.103 124.259 114.332 123.378 114.555 123.336C114.74 123.3 116.739 123.204 117.399 123.173L117.348 123.14C116.727 123.084 115.192 122.948 114.874 122.923C114.471 122.892 113.109 123.28 112.074 123.471C111.038 123.662 110.659 123.865 109.686 123.928C108.712 123.988 108.703 123.275 108.703 123.275C108.703 123.275 108.943 123.06 109.898 122.746C110.853 122.431 114.1 121.29 114.453 121.211C114.807 121.134 115.2 121.155 116.357 121.184C116.938 121.2 117.959 121.26 119.203 121.372L127.947 121.498C127.993 121.497 128.04 121.498 128.086 121.499L128.306 121.503L128.304 121.511C129.298 121.593 130.257 122.059 130.939 122.891C132.275 124.521 132.036 126.924 130.407 128.259C129.56 128.953 128.505 129.219 127.498 129.087L127.497 129.096C127.497 129.096 125.244 128.935 122.858 128.451C121.832 128.396 120.604 128.084 119.785 127.868C118.791 127.605 117.328 127.635 117.027 127.713C116.727 127.793 115.705 128.341 114.503 128.977C113.304 129.613 112.798 129.399 112.571 129.21C112.344 129.02 112.791 128.669 112.969 128.582C113.147 128.496 116.098 126.558 116.385 126.459C116.673 126.359 118.31 126.35 118.31 126.35C118.31 126.35 118.02 126.288 117.158 126.249C116.296 126.209 115.489 126.412 114.888 126.481C114.287 126.55 113.134 127.125 111.896 127.521C110.657 127.917 110.112 127.465 110.057 127.223C110.002 126.98 112.411 125.921 112.411 125.921C114.175 125.137 114.906 125.045 114.906 125.045C114.906 125.045 114.415 125.013 114.029 125.074C113.643 125.134 112.502 125.57 111.297 125.974C110.093 126.377 109.257 126.378 108.917 126.307C108.577 126.235 108.344 125.902 108.425 125.777C108.505 125.651 110.145 124.948 111.124 124.604" fill="#CF976F"/>
<path fill-rule="evenodd" clip-rule="evenodd" d="M128.69 121.317C128.69 121.317 137.814 119.586 144.416 118.786C150.872 118.005 161.246 116.546 161.246 116.546L161.246 116.552C161.394 116.533 161.541 116.52 161.69 116.51C161.738 116.508 161.786 116.504 161.833 116.503C161.96 116.498 162.086 116.496 162.213 116.498C162.304 116.5 162.395 116.506 162.486 116.511C162.582 116.516 162.677 116.521 162.774 116.531C162.967 116.551 163.164 116.578 163.359 116.617C165.339 117.012 166.925 118.265 167.81 119.912C168.204 120.643 168.46 121.454 168.548 122.3C168.615 122.934 168.588 123.59 168.457 124.249C168.415 124.453 168.364 124.65 168.307 124.842C168.288 124.905 168.266 124.965 168.245 125.028C168.202 125.157 168.157 125.287 168.106 125.411C168.078 125.482 168.048 125.549 168.017 125.617C167.966 125.733 167.911 125.848 167.853 125.96C167.819 126.025 167.785 126.091 167.75 126.155C167.684 126.273 167.613 126.387 167.54 126.499C167.507 126.551 167.476 126.604 167.44 126.655C167.334 126.81 167.222 126.958 167.104 127.102C167.06 127.156 167.013 127.204 166.968 127.255C166.887 127.347 166.806 127.438 166.722 127.524C166.66 127.587 166.595 127.647 166.53 127.706C166.458 127.775 166.382 127.843 166.306 127.908C166.234 127.97 166.161 128.029 166.086 128.088C166.013 128.145 165.939 128.2 165.863 128.252C165.782 128.311 165.702 128.369 165.619 128.422C165.549 128.468 165.475 128.51 165.403 128.552C165.214 128.665 165.02 128.767 164.82 128.86C164.772 128.883 164.725 128.908 164.675 128.929C164.568 128.976 164.456 129.017 164.344 129.058C164.28 129.083 164.215 129.107 164.15 129.129C164.039 129.166 163.926 129.199 163.812 129.231C163.745 129.249 163.679 129.266 163.612 129.283C163.494 129.311 163.377 129.337 163.258 129.359C163.196 129.37 163.132 129.379 163.07 129.389C162.944 129.408 162.818 129.428 162.69 129.439C162.69 129.443 157.607 130.232 148.105 129.742C144.433 129.553 139.964 129.457 136.299 129.408C135.538 129.398 135.813 129.748 135.136 129.742C132.643 129.718 130.049 129.947 129.389 129.874C129.284 129.863 129.246 129.359 129.246 129.359L128.69 121.317Z" fill="#F5F7FC"/>
<path fill-rule="evenodd" clip-rule="evenodd" d="M146.869 93.833L147.683 96.5206C147.943 97.4147 148.203 98.3072 148.441 99.2089C148.691 100.106 148.93 101.013 149.223 101.906C149.51 102.8 149.822 103.687 150.204 104.548C150.025 103.624 149.807 102.714 149.6 101.803C149.396 100.891 149.172 99.9837 148.932 99.0752C148.678 98.1708 148.402 97.2682 148.051 96.3935C147.707 95.5172 147.322 94.6586 146.869 93.833" fill="#BCADAD"/>
<path fill-rule="evenodd" clip-rule="evenodd" d="M135.29 122.078C135.207 123.227 135.191 124.379 135.232 125.531C135.272 126.684 135.408 127.837 135.603 128.979C135.632 129.126 135.665 129.261 135.656 129.325C135.641 129.38 135.66 129.371 135.562 129.41C135.357 129.451 135.015 129.469 134.747 129.497L133.038 129.641L129.606 129.92C130.754 130.026 131.905 130.047 133.057 130.031C133.634 130.032 134.208 129.99 134.783 129.958C135.087 129.931 135.32 129.938 135.681 129.88C135.865 129.864 136.141 129.634 136.148 129.391C136.171 129.166 136.119 129.02 136.103 128.884C135.87 127.772 135.743 126.64 135.622 125.504L135.29 122.078Z" fill="#BCADAD"/>
<path fill-rule="evenodd" clip-rule="evenodd" d="M86.0204 118.969C85.9382 120.118 85.9221 121.269 85.9636 122.423C86.0034 123.575 86.1398 124.727 86.3345 125.87C86.3633 126.016 86.3955 126.152 86.387 126.217C86.3726 126.271 86.3904 126.263 86.293 126.301C86.0881 126.341 85.746 126.36 85.4785 126.388L83.7689 126.532L80.3371 126.811C81.4852 126.916 82.6368 126.938 83.7884 126.921C84.365 126.923 84.9391 126.881 85.5132 126.848C85.818 126.821 86.0517 126.83 86.4124 126.771C86.5953 126.755 86.8722 126.525 86.879 126.281C86.9027 126.057 86.8502 125.91 86.8341 125.776C86.6012 124.663 86.4742 123.531 86.3531 122.395L86.0204 118.969Z" fill="#BCADAD"/>
<path fill-rule="evenodd" clip-rule="evenodd" d="M162.102 118.001C161.464 117.784 160.819 117.616 160.168 117.466C159.511 117.324 158.846 117.221 158.182 117.118C157.51 117.046 156.824 117.052 156.154 117.139C155.481 117.223 154.817 117.37 154.192 117.621C154.864 117.576 155.522 117.531 156.179 117.529C156.835 117.536 157.487 117.542 158.137 117.625C158.789 117.713 159.441 117.801 160.102 117.85C160.764 117.918 161.428 117.99 162.102 118.001" fill="#BCADAD"/>
<path fill-rule="evenodd" clip-rule="evenodd" d="M154.571 80.3877C154.313 80.3437 154.05 80.3039 153.782 80.27C153.518 80.2759 153.249 80.2971 152.975 80.3107C152.716 80.3801 152.451 80.4478 152.191 80.5325C151.949 80.6519 151.694 80.756 151.457 80.8932C150.516 81.4588 149.798 82.3191 149.243 83.2378C148.698 84.1692 148.312 85.1836 148.09 86.2285C147.869 87.2708 147.777 88.3555 147.969 89.3987C147.989 88.3437 148.177 87.3174 148.469 86.3259C148.77 85.3394 149.154 84.3742 149.681 83.4969C150.198 82.6163 150.853 81.8145 151.67 81.2184C152.486 80.6172 153.514 80.32 154.571 80.3877" fill="#BCADAD"/>
<path fill-rule="evenodd" clip-rule="evenodd" d="M115.35 114.799C114.316 114.4 113.227 114.182 112.132 114.055C111.035 113.944 109.925 113.924 108.829 114.094C109.925 114.256 111.006 114.351 112.087 114.475C113.171 114.584 114.245 114.723 115.35 114.799" fill="#BCADAD"/>
<path fill-rule="evenodd" clip-rule="evenodd" d="M164.465 120.543C163.758 120.15 163.014 119.835 162.257 119.556C161.501 119.272 160.722 119.054 159.935 118.867C159.148 118.691 158.351 118.546 157.547 118.471C156.744 118.389 155.937 118.348 155.129 118.393L157.489 118.857C158.269 119.022 159.049 119.178 159.823 119.361C160.598 119.534 161.367 119.735 162.141 119.927L164.465 120.543Z" fill="#BCADAD"/>
<path fill-rule="evenodd" clip-rule="evenodd" d="M143.997 77.4658C141.933 82.2194 139.964 85.0389 136.488 88.884C134.947 87.5182 132.008 82.2108 130.701 82.8941C129.927 83.298 127.559 86.331 125.835 87.6917C123.809 77.5063 126.8 74.6285 127.921 73.773C130.816 71.5638 134.386 71.7777 138.064 72.102C139.528 72.2307 144.06 75.52 144.216 76.4735C144.271 76.8122 144.134 77.1509 143.997 77.4658Z" fill="#BCADAD"/>
<path fill-rule="evenodd" clip-rule="evenodd" d="M137.483 66.1404L138.526 71.8386C138.526 71.8386 139.594 75.6916 137.105 80.9834C134.615 86.2751 129.924 84.7134 129.901 82.5217C129.877 80.33 130.032 77.5251 130.032 77.5251L128.405 72.1993L137.483 66.1404Z" fill="#CF976F"/>
<path fill-rule="evenodd" clip-rule="evenodd" d="M137.493 66.1997C137.493 66.1997 138.316 71.1753 138.724 73.6706C138.866 74.5433 141.793 75.0492 141.793 75.0492C141.793 75.0492 138.94 82.9632 135.291 84.3979C131.641 85.8327 123.334 78.9183 126.338 78.2217C129.342 77.5252 129.756 76.5717 129.756 76.5717L128.414 72.2586L137.493 66.1997Z" fill="#CF976F"/>
<path fill-rule="evenodd" clip-rule="evenodd" d="M136.541 86.1237C137.14 87.4571 135.624 88.6507 134.69 89.7749C132.885 91.9455 134.635 94.9067 132.567 96.9677C131.687 97.8437 130.527 98.3485 129.392 98.7892C128.65 99.0783 126.771 100.232 126.158 99.5413C125.585 98.8954 125.036 98.2188 124.641 97.4467C124.145 96.4803 123.769 95.146 124.437 94.1636C124.734 93.7256 125.136 93.3765 125.415 92.9242C126.281 91.5247 125.653 90.0477 125.979 88.5473C126.192 87.5649 126.225 87.2186 126.417 86.8319C127.129 85.399 128.543 82.4972 130.472 82.9813C132.4 83.4653 132.609 82.0003 135.609 84.2105C136.236 84.6782 136.247 85.4688 136.541 86.1237Z" fill="#DB3631"/>
<path fill-rule="evenodd" clip-rule="evenodd" d="M137.755 67.5773C134.391 76.6092 130.76 77.223 130.021 77.4658C130.021 77.4633 130.022 77.4551 130.022 77.4551L128.406 72.1847L137.474 66.0557L137.755 67.5773Z" fill="#A35D39"/>
<path fill-rule="evenodd" clip-rule="evenodd" d="M126.168 75.5205C125.006 78.1479 124.568 81.3836 125.835 87.7486C127.502 86.4336 129.767 83.5623 130.615 83.0077C130.231 82.9162 128.044 81.6385 127.537 78.5149C127.029 75.3896 128.747 73.199 128.747 73.199L127.108 74.2112L126.168 75.5205Z" fill="#F4F6FB"/>
<path fill-rule="evenodd" clip-rule="evenodd" d="M139.827 74.2376C139.733 73.5005 139.405 72.5057 138.583 72.25C139.702 72.4252 140.101 72.4783 141.096 73.0625C142.092 73.6468 144.9 74.7916 144.743 75.6018C144.011 79.3588 139.964 85.0973 136.488 88.9423C135.535 88.0981 134.826 86.9406 134.07 85.9279C133.289 84.8822 132.482 83.9483 131.523 83.082C132.117 82.8594 132.611 82.6019 133.117 82.2065C134.141 81.4047 135.111 80.5351 136.061 79.6477C136.92 78.8441 137.842 78.0643 138.583 77.1464C138.802 76.8771 139.007 76.5935 139.196 76.2997C139.697 75.5164 139.899 74.7922 139.827 74.2376Z" fill="#F4F6FB"/>
<path fill-rule="evenodd" clip-rule="evenodd" d="M120.252 36.7092C121.857 34.6353 123.021 34.1305 125.292 36.2754C127.562 38.4198 131.675 42.8128 137.906 44.5556C137.906 44.5556 139.043 44.458 139.459 46.1696C139.744 47.3437 140.083 50.2656 142.951 52.5187C142.951 52.5187 143.591 52.3456 143.94 52.0497C144.288 51.7538 145.705 50.9978 146.447 52.7724C147.189 54.5474 145.759 56.1034 144.924 56.3349C144.088 56.5664 143.014 56.3214 142.92 57.0843C142.843 57.7048 142.09 62.7319 139.715 66.3494C139.167 67.1848 138.532 67.9442 137.8 68.5577C133.131 72.4655 128.797 74.3885 124.267 71.8369C120.663 69.8068 117.38 62.6972 116.397 54.421C115.515 46.9889 117.297 40.5265 120.252 36.7092" fill="#CF976F"/>
<path fill-rule="evenodd" clip-rule="evenodd" d="M130.587 42.0949C130.587 42.0949 131.349 42.1579 132.68 43.0723C134.01 43.9873 134.458 44.2058 134.395 44.4685C134.332 44.7311 133.754 44.5792 132.752 43.9091C132.752 43.9091 130.788 42.7965 130.631 42.5963C130.474 42.3961 130.433 42.0674 130.587 42.0949" fill="black"/>
<path fill-rule="evenodd" clip-rule="evenodd" d="M117.998 42.2908C117.998 42.2908 118.543 42.1287 118.723 42.113C118.902 42.0972 118.777 42.3548 118.402 42.6835C118.028 43.0117 116.954 43.9104 116.798 44.0065C116.642 44.102 116.283 44.3306 116.357 44.0446C116.431 43.7585 116.45 43.5924 117.145 43.0717C117.84 42.5514 117.998 42.2908 117.998 42.2908" fill="black"/>
<path fill-rule="evenodd" clip-rule="evenodd" d="M116.399 54.4334C116.399 54.4334 117.41 54.2876 118.379 55.0222C119.349 55.7563 120.362 57.218 119.706 58.6481C119.05 60.0788 117.662 60.5797 117.662 60.5797C117.662 60.5797 116.388 57.0061 116.399 54.4334" fill="#D18765"/>
<path fill-rule="evenodd" clip-rule="evenodd" d="M121.924 56.5683C121.924 56.5683 122.609 55.4745 123.863 55.6416C125.116 55.8088 125.884 56.7492 126.026 57.2603C126.168 57.7714 125.893 58.7316 124.809 59.0181C123.726 59.3046 122.091 58.8672 121.717 58.3216C121.344 57.7754 121.924 56.5683 121.924 56.5683" fill="#D18765"/>
<path fill-rule="evenodd" clip-rule="evenodd" d="M132.308 55.8923C132.308 55.8923 133.484 54.6217 134.615 54.1731C135.745 53.7245 136.922 53.4765 137.495 53.6899C138.069 53.9033 138.693 54.6969 138.342 56.0427C137.991 57.3885 136.287 59.3185 133.728 59.1305C131.169 58.9426 131.137 57.8935 131.409 57.3148C131.68 56.7356 132.308 55.8923 132.308 55.8923" fill="#D18765"/>
<path fill-rule="evenodd" clip-rule="evenodd" d="M123.956 45.2783C124.062 46.6577 124.085 48.035 123.906 49.3635C123.859 49.6947 123.79 50.0184 123.715 50.3394C123.629 50.6676 123.539 50.9953 123.44 51.3215C123.249 51.9748 123.047 52.6272 122.824 53.2724C122.614 53.9227 122.384 54.5674 122.144 55.2034C122.023 55.5235 121.912 55.8375 121.763 56.1113C121.688 56.2576 121.582 56.4121 121.515 56.6564C121.484 56.7829 121.483 56.9323 121.518 57.0664C121.557 57.196 121.616 57.3093 121.683 57.3936C122.206 58.0216 122.884 58.336 123.596 58.4951C124.308 58.6358 125.028 58.5794 125.696 58.396C125.004 58.4127 124.316 58.3594 123.694 58.1343C123.384 58.0246 123.089 57.8829 122.831 57.6939C122.58 57.5135 122.314 57.2803 122.175 57.0598C122.107 56.9425 122.108 56.8957 122.132 56.8221C122.163 56.7337 122.248 56.5955 122.342 56.4431C122.539 56.12 122.675 55.7877 122.814 55.4707C123.082 54.8244 123.32 54.1721 123.546 53.5142C123.759 52.8522 123.964 52.1867 124.135 51.5105C124.219 51.1716 124.294 50.8297 124.364 50.4868C124.433 50.1337 124.478 49.7765 124.496 49.4219C124.57 48.0035 124.372 46.6028 123.956 45.2783" fill="black"/>
<path fill-rule="evenodd" clip-rule="evenodd" d="M131.967 48.8448C131.967 48.8448 131.184 48.9124 131.227 49.7761C131.271 50.6393 131.605 50.8623 131.924 50.8978C132.242 50.9334 132.696 50.5315 132.634 49.8116C132.571 49.0918 132.111 48.8139 131.967 48.8448" fill="#010000"/>
<path fill-rule="evenodd" clip-rule="evenodd" d="M118.433 48.9802C118.433 48.9802 117.85 49.0305 117.923 49.7011C117.985 50.2818 118.018 50.6146 118.355 50.6928C118.693 50.7706 119.083 50.3585 119.088 49.8693C119.093 49.3806 118.772 49.0768 118.433 48.9802" fill="#010000"/>
<path fill-rule="evenodd" clip-rule="evenodd" d="M130.3 62.7737C129.949 63.3859 129.609 63.9584 129.237 64.4695C128.857 64.97 128.429 65.3962 127.95 65.5827C127.836 65.6492 127.705 65.6553 127.583 65.6965C127.44 65.7173 127.287 65.7457 127.138 65.7539C126.837 65.7965 126.535 65.7691 126.227 65.7528C125.612 65.6914 124.987 65.5268 124.343 65.2397C124.713 65.8534 125.35 66.2975 126.056 66.5271C126.409 66.65 126.787 66.7039 127.164 66.7156C127.354 66.7283 127.538 66.7024 127.73 66.6897C127.934 66.6414 128.148 66.616 128.337 66.522C129.133 66.1984 129.621 65.5181 129.922 64.8643C130.213 64.1937 130.357 63.4844 130.3 62.7737" fill="black"/>
<path fill-rule="evenodd" clip-rule="evenodd" d="M144.628 53.1721C144.628 53.1721 145.366 53.3377 145.366 54.1328C145.332 55.1931 144.394 55.9216 143.691 54.994C143.389 54.365 144.361 53.9012 144.628 54.4641" fill="#A35D39"/>
<path fill-rule="evenodd" clip-rule="evenodd" d="M130.037 45.421C127.02 46.1136 125.48 49.763 126.282 52.5793C126.689 54.0069 127.645 55.3049 128.976 55.9595C130.595 56.7562 132.448 56.3667 133.837 55.2956C136.482 53.2584 136.412 49.2897 134.336 46.8638C133.23 45.5717 131.594 45.0636 130.037 45.421Z" stroke="#FFCD00" stroke-width="0.736" stroke-linecap="round" stroke-linejoin="round"/>
<path fill-rule="evenodd" clip-rule="evenodd" d="M117.335 44.9083C114.986 45.5611 113.789 49.0006 114.413 51.6559C114.728 53.0014 115.473 54.2249 116.509 54.8422C117.77 55.5924 119.211 55.2258 120.292 54.2165C122.351 52.2961 122.296 48.5552 120.681 46.2681C119.82 45.0497 118.546 44.5721 117.335 44.9083Z" stroke="#FFCD00" stroke-width="0.736" stroke-linecap="round" stroke-linejoin="round"/>
<path d="M121.867 50.6296C121.867 50.6296 123.977 48.2621 126.082 51.2054" stroke="#FFCD00" stroke-width="0.723" stroke-linecap="round" stroke-linejoin="round"/>
<path fill-rule="evenodd" clip-rule="evenodd" d="M142.816 51.9513L143.981 52.0112C143.981 52.0112 143.932 52.0564 143.91 52.0742C143.56 52.3731 142.911 52.5407 142.911 52.5407C142.903 52.5339 135.766 52.196 135.766 52.196C135.604 52.1884 135.479 52.0504 135.487 51.8878C135.494 51.7269 135.615 51.5915 135.795 51.6092L142.816 51.9513Z" fill="#FFCD00"/>
<path fill-rule="evenodd" clip-rule="evenodd" d="M59.6958 54H-9.19632C-10.4832 54 -11.3869 55.0569 -11.2142 56.3612L-4.84892 104.517C-4.67627 105.821 -3.49299 106.877 -2.20613 106.877H66.686C67.9729 106.877 68.8766 105.821 68.7047 104.517L62.3386 56.3612C62.1668 55.0569 60.9827 54 59.6958 54" fill="#B5E2FF"/>
<path fill-rule="evenodd" clip-rule="evenodd" d="M21.5834 130.078H13.4686C13.0604 130.078 12.8147 129.744 12.9206 129.331L22.6227 91.4895C22.7287 91.0766 23.1452 90.7419 23.5543 90.7419H31.6682C32.0774 90.7419 32.3221 91.0766 32.2171 91.4895L22.515 129.331C22.409 129.744 21.9916 130.078 21.5834 130.078" fill="#5AADE4"/>
<path opacity="0.499864" fill-rule="evenodd" clip-rule="evenodd" d="M28.2174 106.878H44.8275L32.246 91.4211L30.255 99.0603L28.2174 106.878Z" fill="#5AADE4"/>
<path fill-rule="evenodd" clip-rule="evenodd" d="M63.5873 101.163L57.9934 59.1503L-4.149 59.1614C-4.50063 59.1614 -4.78687 58.8746 -4.78687 58.5204C-4.78687 58.167 -4.50063 57.8802 -4.149 57.8802L58.5514 57.8691C58.8716 57.8691 59.1409 58.1064 59.1833 58.4248L64.8511 100.992C64.897 101.344 64.6524 101.666 64.3041 101.713C64.2744 101.717 64.2464 101.719 64.2183 101.719C63.9032 101.719 63.6297 101.486 63.5873 101.163Z" fill="#5AADE4"/>
<path fill-rule="evenodd" clip-rule="evenodd" d="M73.5609 129.473H35.4997C34.9618 129.473 34.5262 129.036 34.5262 128.497V126.891C34.5262 126.351 34.9618 125.914 35.4997 125.914H73.5609C74.0988 125.914 74.5344 126.351 74.5344 126.891V128.497C74.5344 129.036 74.0988 129.473 73.5609 129.473" fill="#5AADE4"/>
</g>
<path fill-rule="evenodd" clip-rule="evenodd" d="M207.919 80.8603C206.305 81.3648 205.859 80.1338 205.919 79.6204C205.978 79.1071 206.575 78.7269 207.395 78.5105C208.313 78.2686 209.822 78.4487 209.979 78.8832C210.136 79.3172 209.532 80.3559 207.919 80.8603M202.667 73.3458C203.04 74.6027 203.629 76.0083 202.673 76.2932C201.42 76.6665 200.516 72.8161 201.336 71.6987C202.156 70.5814 202.294 72.0885 202.667 73.3458M195.312 79.8683C195.593 83.1257 195.953 84.797 195.067 85.2832C194.182 85.7685 192.923 83.194 192.754 80.4699C192.584 77.7458 192.223 76.9754 193.706 76.1092C194.505 75.6422 195.031 76.6109 195.312 79.8683M212.486 75.4323C209.363 76.7303 209.187 74.664 212.119 73.5172C215.052 72.3697 211.819 69.5291 211.636 68.1214C211.453 66.7129 206.383 64.2119 206.277 68.4291C206.171 72.6462 205.487 75.2708 204.859 71.7298C204.23 68.1895 204.874 66.8084 202.433 68.1866C199.992 69.5646 199.212 69.4386 199.296 71.7022C199.381 73.9658 198.979 78.9461 198.265 75.8457C197.551 72.7459 197.815 69.8643 196.345 71.2174C194.875 72.5706 194.284 73.1951 192.624 73.7978C190.965 74.4008 189.659 74.6291 190.378 83.381C191.097 92.1334 189.458 88.0584 189.17 86.3598C188.882 84.6619 188.57 76.5818 187.395 78.0735C186.221 79.5657 183.886 79.4308 186.473 89.0602C187.275 92.0439 189.364 95.4667 193.922 97.0064C198.48 98.5461 209.029 96.1076 210.767 94.8196C212.506 93.5328 214.627 88.3381 212.114 89.7421C209.601 91.1467 199.355 91.2633 203.62 89.9609C207.883 88.6575 213.118 89.1321 214.083 85.2583C215.049 81.3843 214.177 81.4551 210.758 83.516C207.34 85.5776 203.792 84.572 208.305 82.6047C212.819 80.6373 212.346 81.1368 213.672 78.9344C214.998 76.7326 215.609 74.1339 212.486 75.4323" fill="#B5E2FF"/>
<path d="M188.954 117.558C191.422 90.719 204.202 78.3006 204.331 78.1785" stroke="#5AADE4" stroke-linecap="round" stroke-linejoin="round"/>
<path fill-rule="evenodd" clip-rule="evenodd" d="M179.698 86.9795C182.923 87.2393 184.265 83.9157 184.025 82.0038C183.786 80.0916 182.969 78.9349 184.527 77.805C186.084 76.6751 187.425 74.4182 186.011 72.5389C184.596 70.6598 182.153 71.4447 184.123 68.6152C186.092 65.7859 184.094 66.05 182.803 66.0172C181.511 65.9838 181.188 65.1835 180.983 64.4494C180.777 63.7153 180.129 62.8088 178.614 63.0365C177.1 63.2635 176.428 64.739 176.216 65.3917C176.005 66.045 175.842 67.5756 174.342 67.5016C172.842 67.4281 172.407 68.342 172.261 68.878C172.116 69.4136 172.684 70.7385 173.321 71.2521C173.958 71.7664 175.167 72.9116 173.494 73.282C171.823 73.6523 170.617 74.9809 172.577 77.3999C174.536 79.8183 177.142 80.6702 176.288 82.1967C175.433 83.7231 175.864 86.6703 179.698 86.9795" fill="#B5E2FF"/>
<path d="M188.934 117.735C188.838 117.503 179.265 94.2158 178.862 69.2925" stroke="#5AADE4" stroke-linecap="round" stroke-linejoin="round"/>
<path fill-rule="evenodd" clip-rule="evenodd" d="M176.298 109.468V126.093C176.298 128.072 177.898 129.678 179.872 129.678H198.167C200.141 129.678 201.741 128.072 201.741 126.093V109.468H176.298Z" fill="#5AADE4"/>
</svg>
