<svg width="100" height="100" viewBox="0 0 100 100" fill="none" xmlns="http://www.w3.org/2000/svg">
<g clip-path="url(#clip0_2301_3562)">
<path fill-rule="evenodd" clip-rule="evenodd" d="M50.0001 100C23.1101 100 1.32007 97.92 1.32007 95.36C1.32007 92.8 23.1201 90.72 50.0001 90.72C76.8801 90.72 98.6901 92.8 98.6901 95.36C98.6901 97.92 76.8901 100 50.0001 100Z" fill="#A0D6E2"/>
<path d="M57.04 0.339985C60.56 -0.820015 64.35 1.05999 65.5 4.54999L88.42 73.96C89.57 77.44 87.65 81.21 84.13 82.37L41.91 96.31C38.39 97.47 34.6 95.59 33.45 92.1L10.53 22.7C9.37999 19.22 11.3 15.45 14.82 14.29L57.04 0.339985Z" fill="#005162"/>
<path d="M35.74 27.63C36.68 27.32 37.71 27.84 38.02 28.79C38.33 29.74 37.87 30.68 37 31.04L36.88 31.08L25.69 34.78C24.75 35.09 23.72 34.57 23.41 33.62C23.1 32.67 23.56 31.73 24.43 31.37L24.55 31.33L35.74 27.63Z" fill="#FFF6F3"/>
<path d="M54.46 12.99C55.4 12.68 56.43 13.2 56.74 14.15C57.05 15.1 56.59 16.04 55.72 16.4L55.6 16.44L23.17 27.15C22.23 27.46 21.2 26.94 20.89 25.99C20.58 25.04 21.04 24.1 21.91 23.74L22.03 23.7L54.46 12.99Z" fill="#FFF6F3"/>
<path fill-rule="evenodd" clip-rule="evenodd" d="M77.79 76.5C74.77 77.5 71.52 75.89 70.53 72.91C69.54 69.93 71.2 66.7 74.23 65.71C77.26 64.72 80.51 66.32 81.49 69.3C82.47 72.28 80.82 75.5 77.79 76.5Z" fill="#FFF6F3"/>
<path fill-rule="evenodd" clip-rule="evenodd" d="M45.39 86.13C44.46 86.44 43.45 85.93 43.15 85L40.05 75.6C39.74 74.67 40.25 73.66 41.18 73.35L47.32 71.32C48.25 71.01 49.25 71.52 49.56 72.45L52.66 81.85C52.97 82.78 52.46 83.79 51.53 84.09L45.39 86.12V86.13Z" fill="#FFF6F3"/>
<path fill-rule="evenodd" clip-rule="evenodd" d="M51.0001 76.06C51.2501 76.2 51.3401 76.51 51.2101 76.76C51.0801 77.01 50.7601 77.1 50.5101 76.97L50.1401 76.78C49.8401 76.64 49.5201 76.51 49.2001 76.39C48.6901 76.21 48.2201 76.1 47.8101 76.07C47.6401 76.06 47.4901 76.06 47.3601 76.07L47.2401 76.09L47.1301 76.2L46.9701 76.33C46.2701 76.88 45.3001 77.21 44.0401 77.15C43.8801 77.22 43.7101 77.33 43.5301 77.48C43.2201 77.74 42.9101 78.12 42.6101 78.57C42.4201 78.85 42.2401 79.15 42.0901 79.44L41.9001 79.81C41.7801 80.07 41.4701 80.18 41.2201 80.06C40.9601 79.94 40.8501 79.63 40.9701 79.38L41.0801 79.16L41.1901 78.95C41.3601 78.63 41.5501 78.31 41.7701 77.99C42.1201 77.47 42.4901 77.04 42.8701 76.7C43.0401 76.56 43.2101 76.43 43.3801 76.33L42.2801 72.99C42.1901 72.72 42.3401 72.43 42.6201 72.34C42.8701 72.26 43.1301 72.36 43.2501 72.58L43.2901 72.67L44.4301 76.13C45.2701 76.12 45.9101 75.88 46.3601 75.53C46.3701 75.52 46.3901 75.51 46.4001 75.5L45.2501 72.03C45.1601 71.76 45.3101 71.47 45.5901 71.38C45.8401 71.3 46.1001 71.4 46.2201 71.62L46.2601 71.71L47.3701 75.06C47.5401 75.04 47.7301 75.05 47.9201 75.06C48.4301 75.1 48.9801 75.23 49.5701 75.44C49.9301 75.57 50.2801 75.71 50.6001 75.86L50.9701 76.04C50.9701 76.04 51.0101 76.06 51.0301 76.07L51.0001 76.06ZM51.4401 78.46L51.5001 78.34L51.1501 77.27C50.9701 77.28 50.8101 77.41 50.7301 77.59C50.7301 77.6 50.7201 77.62 50.7101 77.64L50.5401 77.96C50.3801 78.25 50.2101 78.55 50.0201 78.83C49.7201 79.28 49.4101 79.65 49.1001 79.92L48.9701 80.02C48.8901 80.08 48.8101 80.14 48.7301 80.18L48.6201 80.24H48.5301C48.4501 80.22 48.3601 80.21 48.2701 80.21C47.3801 80.18 46.4001 80.5 45.4301 81.3C45.2601 81.34 45.0601 81.35 44.8201 81.34C44.4201 81.31 43.9401 81.2 43.4301 81.02C43.1101 80.91 42.7901 80.77 42.4901 80.63L42.3001 80.54L42.1101 80.44C41.8601 80.3 41.5501 80.4 41.4101 80.65C41.2801 80.9 41.3701 81.21 41.6201 81.35L41.7501 81.42L42.0501 81.57C42.3801 81.72 42.7301 81.87 43.0801 81.99C43.6701 82.2 44.2201 82.33 44.7301 82.37C44.9501 82.39 45.1601 82.38 45.3601 82.37L46.4601 85.71L46.5001 85.8C46.6201 86.01 46.8801 86.12 47.1301 86.04C47.4101 85.95 47.5601 85.66 47.4701 85.39L46.3301 81.93C47.0201 81.44 47.6601 81.25 48.2401 81.27C48.2601 81.27 48.2801 81.27 48.2901 81.27L49.4401 84.74L49.4801 84.83C49.6001 85.04 49.8601 85.15 50.1101 85.07C50.3901 84.98 50.5401 84.69 50.4501 84.42L49.3401 81.07C49.4901 80.98 49.6301 80.87 49.7801 80.74C50.1601 80.41 50.5301 79.97 50.8801 79.45C51.0901 79.14 51.2901 78.81 51.4601 78.49L51.4401 78.46Z" fill="#005162"/>
<path fill-rule="evenodd" clip-rule="evenodd" d="M71.04 78.73C68.02 79.73 64.77 78.12 63.78 75.14C62.79 72.16 64.45 68.93 67.48 67.94C70.51 66.95 73.76 68.55 74.74 71.53C75.72 74.51 74.07 77.73 71.04 78.73Z" fill="#FF1B44"/>
</g>
<defs>
<clipPath id="clip0_2301_3562">
<rect width="100" height="100" fill="white"/>
</clipPath>
</defs>
</svg>
