<svg viewBox="0 0 70 70" fill="none" xmlns="http://www.w3.org/2000/svg">
<path fill-rule="evenodd" clip-rule="evenodd" d="M34.9987 70C15.6703 70 0 68.5308 0 66.7187C0 64.9077 15.6703 63.4375 34.9987 63.4375C54.3297 63.4375 70 64.9077 70 66.7187C70 68.5308 54.3297 70 34.9987 70Z" fill="#D2EDFF"/>
<path fill-rule="evenodd" clip-rule="evenodd" d="M61.2987 12.9976C62.8015 13.0259 63.3948 14.063 63.8378 15.5363C65.8372 22.1805 68.9941 40.5456 69.2582 41.5328C69.4697 42.3278 69.7237 43.8124 69.5715 44.6201C69.5108 44.9361 69.1108 45.5102 68.8945 45.7476C68.7193 45.9403 68.0595 46.1408 67.8052 46.1983C58.3948 48.3367 48.9146 50.3046 39.4254 52.0586C35.7951 52.7287 22.1077 55.4859 18.9091 55.8024C17.9305 55.9011 17.044 55.2393 16.6963 54.3192C15.5999 51.4259 15.3717 48.1328 14.7897 45.1069C13.5107 38.4437 13.2951 32.3813 12.0013 25.725C11.8047 24.2791 11.5342 23.4045 12.8572 22.6804C15.2418 21.3736 57.3987 12.9236 61.2987 12.9976Z" fill="#1A2E52"/>
<path fill-rule="evenodd" clip-rule="evenodd" d="M54.6894 31.5084C56.1592 31.8229 56.5436 32.9542 56.6974 34.4849C57.3924 41.3885 56.987 60.0186 57.0579 61.0381C57.1138 61.8588 57.0798 63.3646 56.7763 64.1284C56.6565 64.427 56.1542 64.9142 55.8966 65.106C55.6879 65.2617 55.0019 65.3326 54.7413 65.3406C45.0958 65.6442 35.4143 65.767 25.7648 65.6781C22.0733 65.6432 8.11129 65.738 4.9111 65.4385C3.93157 65.3486 3.18768 64.5298 3.02193 63.5603C2.49772 60.5109 2.90211 57.2348 2.9081 54.1534C2.92408 47.3686 2.973 40.5738 2.973 33.7929C3.05588 32.3361 3.69093 31.8808 5.12777 31.4225C7.71788 30.5947 50.8751 30.6916 54.6894 31.5084Z" fill="#056DAE"/>
<path fill-rule="evenodd" clip-rule="evenodd" d="M54.0446 58.8482C54.0446 60.8282 52.444 62.4338 50.4699 62.4338C48.4949 62.4338 46.8943 60.8282 46.8943 58.8482C46.8943 56.8681 48.4949 55.2616 50.4699 55.2616C52.444 55.2616 54.0446 56.8681 54.0446 58.8482Z" fill="#E1F4FF"/>
<path fill-rule="evenodd" clip-rule="evenodd" d="M49.406 58.8482C49.406 60.8282 47.8044 62.4338 45.8304 62.4338C43.8553 62.4338 42.2557 60.8282 42.2557 58.8482C42.2557 56.8681 43.8553 55.2616 45.8304 55.2616C47.8044 55.2616 49.406 56.8681 49.406 58.8482Z" fill="#ED1C24"/>
<path fill-rule="evenodd" clip-rule="evenodd" d="M8.43835 50.8761H17.0235V48.24H8.43835V50.8761Z" fill="#E1F4FF"/>
<path fill-rule="evenodd" clip-rule="evenodd" d="M19.2301 50.8761H27.8142V48.24H19.2301V50.8761Z" fill="#E1F4FF"/>
<path fill-rule="evenodd" clip-rule="evenodd" d="M29.963 50.8761H38.5471V48.24H29.963V50.8761Z" fill="#E1F4FF"/>
<path fill-rule="evenodd" clip-rule="evenodd" d="M40.2936 50.8761H48.8777V48.24H40.2936V50.8761Z" fill="#E1F4FF"/>
<path fill-rule="evenodd" clip-rule="evenodd" d="M16.757 42.3972C16.757 43.0612 16.2138 43.6044 15.5508 43.6044H8.83786C8.17386 43.6044 7.63068 43.0612 7.63068 42.3972V37.9988C7.63068 37.3358 8.17386 36.7926 8.83786 36.7926H15.5508C16.2138 36.7926 16.757 37.3358 16.757 37.9988V42.3972Z" fill="#E1F4FF"/>
<path fill-rule="evenodd" clip-rule="evenodd" d="M11.4605 36.6228C11.601 36.4904 11.8221 36.4969 11.9545 36.6374C12.0869 36.7779 12.0803 36.9991 11.9399 37.1314L11.7405 37.3338C11.5875 37.4962 11.4344 37.6733 11.2922 37.8581C11.0685 38.1487 10.8943 38.4297 10.789 38.6844C10.7455 38.7897 10.7148 38.888 10.6973 38.978L10.6846 39.0614L10.7294 39.1562L10.7805 39.2843C10.9854 39.8508 10.9913 40.5509 10.6821 41.353C10.6915 41.4705 10.7272 41.6055 10.7889 41.7547C10.8942 42.0093 11.0684 42.2903 11.2921 42.581C11.4343 42.7658 11.5874 42.9428 11.7404 43.1053L11.9398 43.3076C12.0802 43.44 12.0868 43.6612 11.9544 43.8017C11.822 43.9421 11.6009 43.9487 11.4604 43.8163L11.3423 43.6997L11.2317 43.5846C11.0636 43.4062 10.8956 43.2119 10.7381 43.0072C10.4801 42.6718 10.2752 42.3413 10.143 42.0218C10.0826 41.8756 10.0379 41.733 10.0109 41.5941H7.63109C7.43808 41.5941 7.28162 41.4377 7.28162 41.2446C7.28162 41.0731 7.40524 40.9304 7.56827 40.9008L7.63109 40.8952H10.1022C10.2742 40.3472 10.2561 39.8892 10.1232 39.5222C10.1163 39.5031 10.1096 39.4855 10.103 39.4693H7.63109C7.43808 39.4693 7.28162 39.3128 7.28162 39.1198C7.28162 38.9483 7.40524 38.8056 7.56827 38.776L7.63109 38.7704H10.0271C10.0544 38.6551 10.0934 38.5374 10.1431 38.4172C10.2753 38.0977 10.4802 37.7672 10.7382 37.4318C10.8957 37.2271 11.0637 37.0328 11.2318 36.8545L11.4282 36.6538C11.4402 36.6421 11.451 36.6317 11.4605 36.6228ZM13.0978 36.8545L13.0363 36.791H12.2753C12.2464 36.9092 12.2948 37.042 12.3897 37.1314C12.3973 37.1386 12.4062 37.1471 12.4163 37.1569L12.5891 37.3338C12.7421 37.4962 12.8952 37.6733 13.0374 37.8581C13.2611 38.1487 13.4352 38.4297 13.5406 38.6844L13.5798 38.7873C13.6031 38.8543 13.6206 38.918 13.6323 38.978L13.6446 39.0614L13.6171 39.1186C13.5946 39.1669 13.5716 39.2222 13.5491 39.2843C13.3441 39.8508 13.3383 40.5509 13.6475 41.353C13.6381 41.4705 13.6024 41.6055 13.5407 41.7547C13.4353 42.0093 13.2612 42.2903 13.0375 42.581C12.8953 42.7658 12.7422 42.9428 12.5892 43.1053L12.4905 43.2081L12.3898 43.3076C12.2493 43.44 12.2428 43.6612 12.3752 43.8017C12.5075 43.9421 12.7287 43.9487 12.8692 43.8163L12.9411 43.7463L13.0979 43.5846C13.266 43.4062 13.4339 43.2119 13.5914 43.0072C13.8495 42.6718 14.0544 42.3413 14.1866 42.0218C14.247 41.8756 14.2916 41.733 14.3186 41.5941H16.6975L16.7603 41.5885C16.9233 41.5589 17.047 41.4162 17.047 41.2446C17.047 41.0516 16.8905 40.8952 16.6975 40.8952H14.2274C14.0554 40.3472 14.0735 39.8892 14.2064 39.5222C14.2133 39.5031 14.22 39.4855 14.2266 39.4693H16.6975L16.7603 39.4637C16.9233 39.4341 17.047 39.2914 17.047 39.1198C17.047 38.9268 16.8905 38.7704 16.6975 38.7704H14.3024C14.2751 38.6551 14.2362 38.5374 14.1865 38.4172C14.0543 38.0977 13.8494 37.7672 13.5913 37.4318C13.4338 37.2271 13.2659 37.0328 13.0978 36.8545Z" fill="#056DAE"/>
</svg>
