<svg viewBox="0 0 71 70" fill="none" xmlns="http://www.w3.org/2000/svg">
<path fill-rule="evenodd" clip-rule="evenodd" d="M34.9987 70C15.6703 70 0 68.5308 0 66.7188C0 64.9077 15.6703 63.4375 34.9987 63.4375C54.3297 63.4375 70 64.9077 70 66.7188C70 68.5308 54.3297 70 34.9987 70Z" fill="#D2EDFF"/>
<path fill-rule="evenodd" clip-rule="evenodd" d="M64.1579 60.2499C61.8702 62.7528 59.7936 63.12 56.6365 63.7004C52.3545 64.4865 48.005 64.8727 43.6545 65.0383C35.1602 65.3612 26.6659 64.8178 18.18 64.4854C15.426 64.3788 12.6181 64.2607 10.0297 63.3205C-1.1996 59.238 5.23812 47.2964 8.5968 40.0525C9.2183 38.7124 8.86165 33.2813 10.0255 32.3644C10.9857 31.6067 12.1982 32.2578 13.3895 31.9644C21.2981 30.0134 41.4892 30.5674 43.1132 31.4485C45.3839 32.6788 48.5928 36.2 50.1513 38.2523C51.5663 40.1147 53.3886 43.6939 55.4536 44.8072C56.7188 45.4888 51.4587 32.6514 55.5887 31.3566C56.8095 30.9789 61.7288 39.4922 62.0327 40.3627C62.9813 43.0745 64.218 46.3878 65.7016 49.7602C67.3087 53.4165 66.9985 57.1423 64.1579 60.2499Z" fill="#056DAE"/>
<path fill-rule="evenodd" clip-rule="evenodd" d="M55.2064 31.7117C54.2113 30.4086 51.9648 30.2281 50.381 29.7871C48.3592 29.2236 46.2014 28.8036 44.091 28.8627C41.415 28.9366 38.8963 29.3154 36.1982 28.9851L48.1208 35.7046C48.1208 35.7046 55.0745 44.8161 55.0829 44.8277C55.0829 44.8277 55.4005 40.9109 55.5567 39.7143C55.8458 37.5047 55.8954 35.2656 55.7013 33.0465C55.6538 32.5 55.4765 32.0652 55.2064 31.7117Z" fill="#056DAE"/>
<path fill-rule="evenodd" clip-rule="evenodd" d="M33.9315 42.1142C35.3697 43.4722 34.9973 47.0346 32.6104 47.0346C26.9905 47.1834 22.7876 46.9818 17.1877 46.4943C15.9648 46.3877 15.1248 44.8271 15.3528 43.7097C15.7337 41.842 17.5454 40.523 19.1884 40.5631C23.4049 40.6654 27.9771 40.0397 32.0828 41.2036C32.7064 41.3798 33.33 41.6119 33.8292 42.0235C33.865 42.052 33.8988 42.0826 33.9315 42.1142Z" fill="#1A2E52"/>
<path d="M25.0119 26.5188L26.2743 26.4938L27.8787 26.4667L29.3977 26.4472L30.8362 26.4358L32.199 26.4329L33.4911 26.4392L34.4167 26.4501L35.0142 26.4605L35.5968 26.4735L36.4441 26.4979L36.992 26.5175L37.7901 26.5522L38.5616 26.5933L39.062 26.6245L39.7936 26.6769L40.2694 26.7157L40.7363 26.7577L41.4216 26.8269L41.8693 26.8771L42.3103 26.9308L42.7452 26.988L43.1694 27.0463L43.6233 27.1012L44.1612 27.1579L46.7175 27.4022L47.3092 27.4668L47.7139 27.5174L48.1255 27.5733C52.9969 28.2497 56.0522 29.811 57.155 33.3491C57.5211 34.524 57.6505 36.5379 57.6178 38.6905L57.6056 39.2547C57.603 39.3491 57.6001 39.4436 57.5969 39.5383L57.5742 40.1068C57.5656 40.2963 57.5558 40.4857 57.545 40.6746L57.5094 41.2391C57.5029 41.3327 57.4962 41.4261 57.4893 41.5192L57.4447 42.0734C57.4289 42.2566 57.4122 42.4381 57.3946 42.6174L57.3392 43.1482C57.3198 43.3227 57.2997 43.4946 57.2787 43.6633L57.2136 44.1598C57.2023 44.2409 57.1909 44.321 57.1793 44.4002L57.1077 44.8637C57.0954 44.9389 57.0829 45.013 57.0703 45.0861C56.9161 45.9789 56.0673 46.5777 55.1744 46.4235C54.2815 46.2693 53.6827 45.4205 53.8369 44.5276L53.869 44.3363L53.9307 43.9342C53.9407 43.8651 53.9506 43.7951 53.9603 43.7242L54.0167 43.288C54.0258 43.2137 54.0348 43.1385 54.0436 43.0626L54.0943 42.599L54.1409 42.1207C54.1484 42.0399 54.1556 41.9586 54.1627 41.877L54.2027 41.3821L54.2381 40.8799C54.2436 40.7957 54.2489 40.7114 54.254 40.6269L54.2819 40.1191C54.2862 40.0343 54.2902 39.9496 54.294 39.8649L54.314 39.358L54.3285 38.8554L54.3372 38.36C54.34 38.1145 54.3407 37.8729 54.3389 37.6367L54.3321 37.172C54.3054 35.9546 54.2085 34.9228 54.0224 34.3253C53.424 32.4058 51.4924 31.3851 47.9054 30.8565L47.2429 30.7651L46.787 30.7098L45.6689 30.5965L43.8164 30.4211L43.3729 30.3748L42.8575 30.3144L42.0932 30.2113L41.6781 30.1589L41.2558 30.1099L40.8257 30.064L40.3872 30.0212L39.9398 29.9815L39.2508 29.9275L38.7788 29.8952L38.2958 29.8658L37.5498 29.8269L36.7763 29.7941L36.2443 29.7756L35.4206 29.7526L34.5643 29.7352L33.3687 29.7204L32.429 29.7154L31.4505 29.7153L30.0821 29.7226L28.6368 29.7379L27.1101 29.7608L25.0805 29.7994C23.7367 29.8275 21.6731 30.2964 19.5371 30.9567L19.002 31.1256C18.9127 31.1544 18.8234 31.1835 18.7341 31.2128L18.1986 31.3921C18.1096 31.4225 18.0206 31.4531 17.9318 31.484L17.4011 31.6716C17.3131 31.7033 17.2254 31.7352 17.1379 31.7672L16.6171 31.9613L16.1057 32.1586C15.937 32.2248 15.7702 32.2914 15.6058 32.3583L15.1198 32.5594C15.0401 32.593 14.961 32.6266 14.8827 32.6603L14.4217 32.862C14.1959 32.9628 13.9774 33.0633 13.7675 33.1631L13.3594 33.3615C12.6996 33.6901 12.1444 34.0068 11.7406 34.2935C11.0019 34.8182 9.97768 34.6448 9.45298 33.906C8.92828 33.1673 9.10177 32.1431 9.84049 31.6184C10.8382 30.9098 12.4742 30.0946 14.3535 29.3267L14.8967 29.1088C14.9882 29.0727 15.0802 29.0368 15.1726 29.001L15.7319 28.7884C15.8258 28.7533 15.9201 28.7185 16.0147 28.6838L16.5854 28.4784C17.2545 28.2419 17.9339 28.0172 18.6091 27.81L19.1864 27.6368C21.3928 26.9904 23.5075 26.5503 25.0119 26.5188Z" fill="#1A2E52"/>
<path fill-rule="evenodd" clip-rule="evenodd" d="M35.3411 28.7267C32.1107 33.6739 26.0403 32.5633 23.9104 31.1835C22.5004 30.2701 18.4436 27.0778 20.2894 20.818C21.7194 15.9688 27.8313 12.9281 33.3176 16.1064C36.9821 18.2294 38.5715 23.7796 35.3411 28.7267Z" fill="#B5E2FF"/>
<path fill-rule="evenodd" clip-rule="evenodd" d="M32.6187 15.7349C32.1225 16.6858 30.9458 18.9799 30.2471 20.6888C29.3549 22.8707 27.4008 26.6284 26.1263 29.2952C25.6567 30.2776 25.246 31.0344 24.913 31.6965C27.7209 32.7927 32.5527 32.9535 35.3411 28.7267C38.6339 23.7351 36.9632 18.1704 33.228 16.0284C33.0343 15.9173 32.8137 15.831 32.6187 15.7349Z" fill="#E1F4FF"/>
<path fill-rule="evenodd" clip-rule="evenodd" d="M25.2843 28.6718C22.9982 27.2148 21.6199 24.8202 22.6669 21.3271C23.773 17.6369 28.3189 15.8253 32.0542 17.9543C34.9318 19.5944 35.7485 23.6358 33.5691 26.9198C31.6124 29.8678 27.6331 30.1689 25.2843 28.6718ZM32.7261 26.3603C34.59 23.5517 33.9077 20.1752 31.5532 18.8333L31.4129 18.7557C28.2706 17.0713 24.5416 18.5964 23.636 21.6176C22.7426 24.5984 23.8824 26.5786 25.828 27.8186C27.7539 29.0462 31.1121 28.792 32.7261 26.3603Z" fill="#5AADE4"/>
<path d="M46.3083 32.1381C46.5802 32.3069 46.8384 32.4795 47.0843 32.6581L47.3903 32.8845C47.541 32.9982 47.6884 33.1128 47.8334 33.229L48.1201 33.4637C48.262 33.5823 48.4019 33.703 48.5404 33.8263L48.8159 34.0768C49.09 34.3313 49.3607 34.5985 49.6337 34.8838L49.9076 35.1753L50.1843 35.4801C50.2771 35.584 50.3706 35.6904 50.465 35.7993L50.7509 36.1343C50.7991 36.1915 50.8476 36.2494 50.8963 36.308L51.1926 36.6687L51.4974 37.0481L51.8119 37.4475L52.1373 37.8679L52.475 38.3107L53.0073 39.0193L54.3156 40.7825L54.7852 41.4042L55.1036 41.8178L55.3033 42.0728L55.4952 42.3141L55.7728 42.6554L56.0439 42.9789L56.3149 43.2928L56.4987 43.5005C57.1023 44.1763 57.0437 45.2135 56.3679 45.817C55.6921 46.4206 54.655 46.3621 54.0514 45.6863L53.7489 45.3429L53.5516 45.1135L53.3553 44.8807L53.1581 44.6421L52.9577 44.3952L52.6469 44.0035L52.2023 43.4285L51.7081 42.7747L50.2288 40.7826L49.9048 40.352L49.5941 39.9441L49.1507 39.3722L48.8686 39.0161L48.596 38.6787L48.3317 38.359L48.0748 38.0559L47.824 37.7683L47.5782 37.495C47.5376 37.4506 47.4972 37.4068 47.4569 37.3635L47.2167 37.1098L46.9788 36.8678C46.8602 36.7495 46.7421 36.6352 46.6238 36.5242L46.3869 36.3065C46.3473 36.2709 46.3076 36.2356 46.2679 36.2006L46.0281 35.9942L45.7852 35.794L45.5379 35.5988L45.2851 35.4077C45.2425 35.3761 45.1996 35.3446 45.1564 35.3132C44.977 35.183 44.7842 35.0541 44.5804 34.9275C42.1466 33.4236 38.9293 32.7757 35.0258 32.8014L22.2878 32.8836L20.9277 32.8978L20.1921 32.9104L19.5096 32.9267L18.8746 32.9474L18.4747 32.9638L18.0915 32.9825L17.5443 33.0153L17.1954 33.0405L16.8573 33.0686L16.3663 33.1165L16.0473 33.1524L15.7329 33.1919L15.4215 33.2349L15.1113 33.2817L14.8006 33.3324L14.4876 33.3872C14.4352 33.3967 14.3826 33.4063 14.3298 33.4162C12.3489 33.786 10.4025 34.828 9.62494 36.1143L9.55551 36.2356C9.12463 37.0327 8.12917 37.3296 7.33208 36.8987C6.53499 36.4678 6.23812 35.4723 6.669 34.6753C7.95635 32.2938 10.8075 30.7358 13.7282 30.1906L14.0786 30.1271L14.4244 30.0684C14.4817 30.059 14.5389 30.0498 14.5961 30.0407L14.9383 29.9887C14.9952 29.9804 15.0522 29.9722 15.1092 29.9643L15.452 29.9185L15.7975 29.8768L16.1475 29.8388L16.504 29.8044L16.8687 29.7734L17.4352 29.7329L18.0307 29.6991L18.6614 29.6712L19.3335 29.6488L20.0532 29.6311L20.8268 29.6176L21.9529 29.6049L35.0046 29.5202C39.4691 29.4909 43.2594 30.2542 46.3083 32.1381Z" fill="#1A2E52"/>
<path fill-rule="evenodd" clip-rule="evenodd" d="M60.8636 37.4493C60.871 37.4757 60.8762 37.5031 60.8815 37.5306L61.3806 40.5094C61.4566 40.9578 61.1506 41.3831 60.7 41.458C60.6272 41.4696 60.5533 41.4728 60.4816 41.4654L54.4227 41.0845L52.4558 38.4402L59.8453 36.8711C60.2874 36.7518 60.7433 37.0104 60.8636 37.4493ZM59.0729 38.2787C58.615 38.2787 58.2446 38.647 58.2446 39.1018C58.2446 39.5565 58.615 39.9259 59.0729 39.9259C59.5298 39.9259 59.9012 39.5565 59.9012 39.1018C59.9012 38.647 59.5298 38.2787 59.0729 38.2787Z" fill="#D2EDFF"/>
<path fill-rule="evenodd" clip-rule="evenodd" d="M52.7231 16.2174C49.4927 21.1646 43.4223 20.054 41.2924 18.6742C39.8825 17.7608 35.8256 14.5685 37.6714 8.30871C39.1014 3.45945 45.2133 0.418756 50.6996 3.59712C54.3642 5.72012 55.9535 11.2703 52.7231 16.2174Z" fill="#B5E2FF"/>
<path fill-rule="evenodd" clip-rule="evenodd" d="M50.0007 3.22559C49.5046 4.17645 48.3278 6.47063 47.6291 8.17946C46.7369 10.3614 44.7828 14.1191 43.5083 16.7859C43.0388 17.7683 42.628 18.5251 42.295 19.1872C45.1029 20.2834 49.9347 20.4442 52.7231 16.2174C56.0159 11.2258 54.3452 5.66113 50.61 3.51905C50.4163 3.40801 50.1957 3.3217 50.0007 3.22559Z" fill="#E1F4FF"/>
<path fill-rule="evenodd" clip-rule="evenodd" d="M42.7177 16.0818C40.4639 14.6454 39.1082 12.2899 40.1406 8.84528C41.229 5.21405 45.707 3.4296 49.3888 5.52814C52.217 7.14006 53.0209 11.1185 50.8713 14.3575C48.9471 17.2567 45.0266 17.5534 42.7177 16.0818ZM50.1879 13.9039C52.0816 11.0504 51.3866 7.61099 48.9826 6.24082L48.84 6.16194C45.6446 4.44919 41.8493 6.00147 40.9264 9.08081C40.0184 12.1101 41.1808 14.1295 43.1586 15.39C45.1245 16.6431 48.5415 16.3845 50.1879 13.9039Z" fill="#5AADE4"/>
<path fill-rule="evenodd" clip-rule="evenodd" d="M10.5273 10.9375C10.5273 13.1271 8.75133 14.9018 6.5625 14.9018C8.75133 14.9018 10.5273 16.6776 10.5273 18.8672C10.5273 16.6776 12.3023 14.9018 14.4922 14.9018C12.3023 14.9018 10.5273 13.1271 10.5273 10.9375Z" fill="#056DAE"/>
<path fill-rule="evenodd" clip-rule="evenodd" d="M17.5828 5.57342C19.3399 5.57342 20.7656 6.99894 20.7656 8.75665C20.7656 6.99894 22.1905 5.57342 23.9485 5.57342C22.1905 5.57342 20.7656 4.14873 20.7656 2.39102C20.7656 4.14873 19.3399 5.57342 17.5828 5.57342Z" fill="#056DAE"/>
<path fill-rule="evenodd" clip-rule="evenodd" d="M64.6297 0C64.6297 3.07447 62.1359 5.56646 59.0625 5.56646C62.1359 5.56646 64.6297 8.0599 64.6297 11.1344C64.6297 8.0599 67.122 5.56646 70.1969 5.56646C67.122 5.56646 64.6297 3.07447 64.6297 0Z" fill="#056DAE"/>
</svg>
