<svg width="100" height="100" viewBox="0 0 100 100" fill="none" xmlns="http://www.w3.org/2000/svg">
<path fill-rule="evenodd" clip-rule="evenodd" d="M49.9982 99.9999C22.3862 99.9999 0 97.9014 0 95.3132C0 92.7264 22.3862 90.6265 49.9982 90.6265C77.6138 90.6265 100 92.7264 100 95.3132C100 97.9014 77.6138 99.9999 49.9982 99.9999Z" fill="#041E2F"/>
<path fill-rule="evenodd" clip-rule="evenodd" d="M81.701 78.0369C81.9509 80.3603 80.4668 81.4779 78.2807 82.4489C68.4216 86.8305 40.7074 95.2864 39.2361 95.8866C38.0509 96.368 35.8104 97.0497 34.5346 96.9727C34.0354 96.9409 33.0716 96.436 32.6632 96.1487C32.3317 95.9162 31.8935 94.9376 31.755 94.5567C26.618 80.4598 21.7304 66.2221 17.171 51.9286C15.4282 46.4601 8.50119 25.8873 7.38802 21.0157C7.04461 19.5254 7.89235 18.029 9.24383 17.313C13.4931 15.0567 18.5286 14.0617 23.0827 12.5729C33.1119 9.29897 43.1718 6.06882 53.1873 2.77321C55.3793 2.18756 56.3605 2.90409 57.7359 4.80325C60.2176 8.22599 81.0533 72.007 81.701 78.0369Z" fill="#056DAE"/>
<path fill-rule="evenodd" clip-rule="evenodd" d="M75.3433 70.8466C76.8172 73.5493 75.8271 76.9322 73.1321 78.4013C70.4357 79.8712 67.0554 78.8707 65.5816 76.168C64.1077 73.4652 65.0971 70.081 67.7934 68.6111C70.4885 67.142 73.8695 68.1438 75.3433 70.8466" fill="#E1F4FF"/>
<path fill-rule="evenodd" clip-rule="evenodd" d="M69.0106 74.299C70.4844 77.0017 69.493 80.3853 66.7979 81.8544C64.1016 83.3243 60.7226 82.3231 59.2488 79.6204C57.775 76.9176 58.7629 73.5341 61.4593 72.0643C64.1543 70.5952 67.5367 71.5962 69.0106 74.299" fill="#ED1C24"/>
<path fill-rule="evenodd" clip-rule="evenodd" d="M17.7042 29.2384L52.1772 17.895L50.8956 14.0016L16.4226 25.345L17.7042 29.2384Z" fill="#E1F4FF"/>
<path fill-rule="evenodd" clip-rule="evenodd" d="M19.5623 34.0292L42.818 26.3769L42.2301 24.5908L18.9744 32.2432L19.5623 34.0292Z" fill="#E1F4FF"/>
<path fill-rule="evenodd" clip-rule="evenodd" d="M41.9731 83.7538C40.9923 84.0765 39.926 83.5383 39.6037 82.5592L36.3406 72.6457C36.0178 71.6651 36.556 70.5989 37.5368 70.2762L44.0334 68.1385C45.0126 67.8162 46.079 68.3544 46.4018 69.335L49.6649 79.2486C49.9872 80.2277 49.4489 81.2938 48.4697 81.6161L41.9731 83.7538Z" fill="#E1F4FF"/>
<path fill-rule="evenodd" clip-rule="evenodd" d="M47.9277 73.1253C48.1915 73.2684 48.2893 73.5983 48.1462 73.8621C48.0031 74.1259 47.6732 74.2237 47.4094 74.0805L47.0136 73.8844C46.6993 73.7373 46.3633 73.5973 46.0212 73.4771C45.4832 73.288 44.9835 73.1673 44.5561 73.1355C44.3794 73.1224 44.2193 73.1249 44.0778 73.1427L43.9485 73.1646L43.8303 73.2768L43.6658 73.4145C42.929 73.9924 41.8979 74.3413 40.5633 74.2747C40.3939 74.3455 40.2113 74.4642 40.0205 74.6283C39.6954 74.9077 39.3649 75.3017 39.0443 75.7734C38.8404 76.0733 38.6532 76.3856 38.4876 76.6907L38.2857 77.0836C38.1584 77.3555 37.8348 77.4727 37.5629 77.3454C37.291 77.2182 37.1737 76.8946 37.301 76.6227L37.4158 76.3915L37.5321 76.1721C37.7139 75.8371 37.9193 75.4945 38.1451 75.1623C38.5152 74.6179 38.9039 74.1545 39.3117 73.8039C39.4984 73.6434 39.6875 73.5081 39.8797 73.4006L38.723 69.8867C38.6292 69.6016 38.7842 69.2945 39.0693 69.2006C39.3227 69.1173 39.5936 69.2305 39.7166 69.4569L39.7554 69.547L40.9564 73.1956C41.8495 73.1833 42.5173 72.934 42.995 72.5593C43.0196 72.54 43.0422 72.5215 43.0629 72.5041L41.8613 68.8538C41.7675 68.5687 41.9225 68.2615 42.2076 68.1677C42.461 68.0843 42.7319 68.1976 42.8549 68.424L42.8937 68.5141L44.0583 72.052C44.2419 72.0363 44.4349 72.0367 44.6367 72.0517C45.1728 72.0916 45.7606 72.2336 46.3815 72.4517C46.7604 72.5849 47.1291 72.7386 47.4742 72.9001L47.8662 73.0926C47.8893 73.1047 47.9098 73.1156 47.9277 73.1253ZM48.3811 75.6561L48.4449 75.5344L48.0749 74.4104C47.8862 74.4251 47.7137 74.5612 47.6278 74.7448C47.6209 74.7595 47.6126 74.7768 47.603 74.7965L47.4258 75.1376C47.2603 75.4426 47.0731 75.7548 46.8693 76.0546C46.5488 76.5262 46.2184 76.9201 45.8935 77.1994L45.7605 77.3074C45.6729 77.3744 45.5873 77.4312 45.5044 77.4776L45.3871 77.5363L45.2893 77.5235C45.207 77.5138 45.1142 77.5067 45.0115 77.5037C44.0748 77.4762 43.0374 77.8081 42.0027 78.6552C41.8248 78.6982 41.6083 78.711 41.3586 78.6924C40.931 78.6606 40.4312 78.5398 39.893 78.3507C39.5508 78.2305 39.2147 78.0904 38.9003 77.9432L38.7005 77.8474L38.5044 77.747C38.2405 77.6039 37.9105 77.7017 37.7674 77.9656C37.6242 78.2295 37.7221 78.5594 37.986 78.7026L38.1243 78.7748L38.4396 78.9279C38.7848 79.0894 39.1536 79.2431 39.5326 79.3763C40.1537 79.5946 40.7416 79.7366 41.278 79.7765C41.5235 79.7948 41.7561 79.7914 41.9745 79.7637L43.1305 83.2756L43.1694 83.3656C43.2924 83.5921 43.5632 83.7053 43.8166 83.6219C44.1017 83.5281 44.2568 83.221 44.1629 82.9359L42.9622 79.2881C43.6878 78.768 44.373 78.5722 44.9797 78.59C45.0114 78.5909 45.0408 78.5924 45.0681 78.5942L46.2693 82.2435L46.3081 82.3336C46.4311 82.56 46.702 82.6732 46.9554 82.5898C47.2405 82.496 47.3955 82.1889 47.3017 81.9038L46.1373 78.3663C46.2941 78.27 46.4489 78.1553 46.602 78.0236C47.0097 77.6731 47.3983 77.2098 47.7682 76.6656C47.994 76.3335 48.1993 75.991 48.3811 75.6561Z" fill="#0E1F3D"/>
</svg>
