<svg width="100" height="100" viewBox="0 0 100 100" fill="none" xmlns="http://www.w3.org/2000/svg">
<path d="M50.4429 86.3794H12.7031V91.3299H50.4429V86.3794Z" fill="#A0D6E2"/>
<path d="M88.7114 86.3794H50.4434V91.3299H88.7114V86.3794Z" fill="#E5FBFF"/>
<path d="M85.7975 51.3754H50.4434V86.3795H85.7975V51.3754Z" fill="#003746"/>
<path d="M34.5329 25.1223H27.9444C26.7276 25.1223 25.5964 25.7418 24.9497 26.7623L10.5307 49.515C9.05341 51.8461 10.7458 54.8757 13.5255 54.8757H15.6773L34.5329 25.1223Z" fill="#00141A"/>
<path d="M50.4415 51.3754H15.0874V86.3795H50.4415V51.3754Z" fill="#005162"/>
<path d="M32.7635 25.1223L50.4405 51.3753H15.0864L32.7635 25.1223Z" fill="#005162"/>
<path d="M32.7666 25.1223H72.0576C73.2744 25.1223 74.4056 25.7418 75.0523 26.7623L89.4712 49.515C90.9486 51.8461 89.2562 54.8757 86.4765 54.8757H53.5775C52.3608 54.8757 51.2295 54.2562 50.5828 53.2357L32.7666 25.1223Z" fill="#00141A"/>
<path d="M25.6953 67.1267C25.6953 66.1601 26.4867 65.3765 27.463 65.3765H38.0692C39.0455 65.3765 39.8369 66.1601 39.8369 67.1267V86.3789H25.6953V67.1267Z" fill="#FFF6F3"/>
<path d="M25.6948 57.0023C25.6948 56.0829 25.8777 55.1724 26.2331 54.323C26.5885 53.4736 27.1093 52.7017 27.766 52.0516C28.4226 51.4015 29.2021 50.8857 30.06 50.5339C30.918 50.1821 31.8375 50.001 32.7661 50.001C33.6947 50.001 34.6143 50.1821 35.4722 50.5339C36.3301 50.8857 37.1096 51.4015 37.7663 52.0516C38.4229 52.7017 38.9438 53.4736 39.2991 54.323C39.6545 55.1724 39.8374 56.0829 39.8374 57.0023H25.6948Z" fill="#FFF6F3"/>
<path d="M59.9766 64.0312C59.9766 63.0646 60.768 62.281 61.7443 62.281H75.6028C76.5791 62.281 77.3705 63.0646 77.3705 64.0312V74.1555H59.9766V64.0312Z" fill="#FFF6F3"/>
<path d="M55.0986 23.5324C55.0986 22.5657 55.8901 21.7822 56.8663 21.7822H63.0809C64.0572 21.7822 64.8486 22.5657 64.8486 23.5324V32.9166H55.0986V23.5324Z" fill="#FF1B44"/>
<path d="M23.0547 90.1098C23.0547 89.1432 23.8461 88.3596 24.8224 88.3596H36.2814C37.2577 88.3596 38.0491 89.1432 38.0491 90.1098V91.3301H23.0547V90.1098Z" fill="#005162"/>
<path fill-rule="evenodd" clip-rule="evenodd" d="M12.8673 10.587C12.8673 14.9244 16.4516 18.4732 20.8323 18.4732C16.4516 18.4732 12.8673 22.0219 12.8673 26.3593C12.8673 22.0219 9.28309 18.4732 4.90234 18.4732C9.28309 18.4732 12.8673 14.9244 12.8673 10.587Z" fill="#FF1B44"/>
<path fill-rule="evenodd" clip-rule="evenodd" d="M70.7051 7.9483C73.8775 7.9483 76.3701 10.4162 76.3701 13.5572C76.3701 10.4162 78.8627 7.9483 82.0351 7.9483C78.8627 7.9483 76.3701 5.48038 76.3701 2.33939C76.3701 5.36821 73.8775 7.9483 70.7051 7.9483Z" fill="#A0D6E2"/>
<path fill-rule="evenodd" clip-rule="evenodd" d="M85.7969 33.0184C88.3169 33.0184 90.2969 34.9788 90.2969 37.4739C90.2969 34.9788 92.2769 33.0184 94.7969 33.0184C92.2769 33.0184 90.2969 31.058 90.2969 28.563C90.2969 30.9689 88.3169 33.0184 85.7969 33.0184Z" fill="#FF1B44"/>
</svg>
