<svg viewBox="0 0 70 70" fill="none" xmlns="http://www.w3.org/2000/svg">
<path fill-rule="evenodd" clip-rule="evenodd" d="M34.9987 70C15.6703 70 0 68.5308 0 66.7188C0 64.9077 15.6703 63.4375 34.9987 63.4375C54.3297 63.4375 70 64.9077 70 66.7188C70 68.5308 54.3297 70 34.9987 70Z" fill="#D2EDFF"/>
<path d="M34.9624 27.8912C35.4387 27.8796 35.8384 28.2358 35.8896 28.7008L35.8974 28.8848L35.9684 32.0732L36.0369 35.7922L36.0614 37.8365L36.0646 38.6135L36.062 39.2154L35.8776 44.6695L35.844 45.8835L35.8294 46.5441L35.8173 47.2951L35.8108 48.1824L35.814 49.4517L35.8233 50.2772L35.8473 51.4154L35.8584 51.7607L35.8787 52.2089L35.8979 52.4844L35.9052 52.6883L35.911 53.0734L35.9111 53.9196L35.8897 55.9294L35.8268 59.5808L35.7253 64.3695C35.7136 64.8722 35.2966 65.2703 34.7939 65.2586C34.3176 65.2475 33.9352 64.8727 33.9062 64.4058L33.9071 64.2238L33.9665 61.5055L34.0419 57.5938L34.0824 54.8079L34.0915 53.5893L34.0911 53.1003L34.0847 52.6877L34.0803 52.5876L34.0628 52.344L34.0486 52.0636L34.0312 51.5912L34.0095 50.7102L33.9967 49.8592L33.9908 49.1289L33.9892 48.5648L33.9897 48.1855L33.9979 47.1472L34.0087 46.5084L34.0323 45.4921L34.0882 43.6616L34.2421 39.1157L34.2436 38.9616L34.2404 37.8456L34.216 35.8166L34.159 32.6607L34.0743 28.8236C34.0621 28.3208 34.4597 27.9034 34.9624 27.8912Z" fill="#1A2E52"/>
<path fill-rule="evenodd" clip-rule="evenodd" d="M51.9434 38.2115C44.0936 50.2332 29.3425 47.5344 24.1668 44.1814C20.7406 41.962 10.8825 34.2046 15.3678 18.9933C18.8428 7.20963 33.6945 -0.179268 47.0263 7.54416C55.9312 12.7031 59.7934 26.1899 51.9434 38.2115Z" fill="#B5E2FF"/>
<path fill-rule="evenodd" clip-rule="evenodd" d="M45.328 6.64136C44.1224 8.95195 41.2628 14.5268 39.565 18.6793C37.3969 23.9814 32.6486 33.1127 29.5514 39.5929C28.4104 41.9803 27.4123 43.8192 26.6031 45.4282C33.4263 48.0919 45.1676 48.4827 51.9433 38.2115C59.9449 26.082 55.8852 12.5597 46.8085 7.35449C46.3378 7.08465 45.8017 6.87491 45.328 6.64136Z" fill="#E1F4FF"/>
<mask id="mask0_131_4918" style="mask-type:alpha" maskUnits="userSpaceOnUse" x="26" y="6" width="31" height="42">
<path fill-rule="evenodd" clip-rule="evenodd" d="M45.328 6.64136C44.1224 8.95195 41.2628 14.5268 39.565 18.6793C37.3969 23.9814 32.6486 33.1127 29.5514 39.5929C28.4104 41.9803 27.4123 43.8192 26.6031 45.4282C33.4263 48.0919 45.1676 48.4827 51.9433 38.2115C59.9449 26.082 55.8852 12.5597 46.8085 7.35449C46.3378 7.08465 45.8017 6.87491 45.328 6.64136Z" fill="white"/>
</mask>
<g mask="url(#mask0_131_4918)">
<path fill-rule="evenodd" clip-rule="evenodd" d="M52.9843 11.0164C51.7786 13.327 48.919 18.9018 47.2212 23.0543C45.0531 28.3564 40.3048 37.4877 37.2076 43.9679C36.0667 46.3553 35.0685 48.1942 34.2593 49.8032C41.0826 52.4669 52.8238 52.8577 59.5996 42.5865C67.6011 30.457 63.5415 16.9347 54.4648 11.7295C53.9941 11.4597 53.458 11.2499 52.9843 11.0164Z" fill="#B5E2FF"/>
</g>
<path fill-rule="evenodd" clip-rule="evenodd" d="M18.8218 20.3287C17.1515 26.028 17.7313 30.9059 20.0287 34.9882C21.6261 37.8266 23.8241 39.9407 26.174 41.4725C28.6837 43.1085 32.9291 44.135 36.9498 43.8238C42.0451 43.4295 46.4399 41.044 49.4226 36.4479C55.5818 26.9562 53.2907 15.3614 45.2639 10.6824C34.7206 4.53645 21.9213 9.75281 18.8218 20.3287ZM44.782 11.5092C52.3215 15.9041 54.4903 26.8802 48.6198 35.9269C45.8074 40.2606 41.6866 42.4973 36.876 42.8697C33.0613 43.1649 29.0259 42.1891 26.6967 40.6708C24.4653 39.2163 22.3748 37.2055 20.8628 34.5188C18.691 30.6599 18.1429 26.0481 19.7402 20.5978C22.6659 10.615 34.779 5.67828 44.782 11.5092ZM38.4085 19.1278C37.6604 18.7729 36.8854 18.5383 36.1006 18.4637L36.0243 16.08C36.0046 15.4645 35.0916 15.4614 35.0678 16.0768L35.0593 16.3666C35.0485 16.8251 35.047 17.3075 35.0606 17.7612C35.0683 18.0161 35.0804 18.2493 35.0978 18.4582C34.7301 18.4899 34.3619 18.56 33.9948 18.6724C32.937 18.9962 32.1741 19.556 31.6781 20.2849C31.398 20.6964 31.2202 21.136 31.1242 21.5785C31.0715 21.8215 31.0497 22.0313 31.0469 22.1943L31.0469 22.2718L31.0512 22.3877C31.0821 22.9284 31.2928 23.6753 31.8356 24.4218C32.1585 24.8658 32.5733 25.2552 33.0875 25.5737C33.4483 25.7972 33.831 25.9945 34.2672 26.1885C34.3163 26.2103 34.3658 26.232 34.4162 26.2538L34.7334 26.3869L34.9066 26.4571L35.6997 26.7705C35.7567 26.7934 35.8123 26.8159 35.8666 26.8381L36.1764 26.9682L36.4567 27.093C37.1674 27.4208 37.5939 27.7143 37.9794 28.1431C38.9709 29.2453 39.3049 30.3005 39.1668 31.2373C39.0621 31.9464 37.7153 33.0958 36.4996 33.3204L36.424 33.3409L36.3095 33.3673C35.885 33.4469 35.3063 33.4196 34.5854 33.1983C33.5147 32.8695 32.3321 32.1646 31.0541 30.9895C30.8595 30.8106 30.5568 30.8233 30.3779 31.0178C30.1991 31.2123 30.2117 31.515 30.4063 31.6939C32.1448 33.2925 33.6993 34.0813 35.0025 34.3043L35.0129 34.4699L35.0354 34.8989L35.0549 35.3727L35.0643 35.7173L35.0675 36.0219C35.0675 36.2862 35.2817 36.5004 35.546 36.5004C35.8103 36.5004 36.0245 36.2862 36.0245 36.0219L36.0211 35.7003L36.0114 35.3403C36.0087 35.2619 36.0057 35.1821 36.0023 35.1009L35.9786 34.6008L35.9654 34.3679C36.1453 34.3595 36.3189 34.3392 36.4859 34.3079L36.5536 34.2943C36.5963 34.2852 36.634 34.2759 36.6666 34.2669L36.7075 34.2542L36.8098 34.2336C38.3557 33.8864 39.9478 32.4996 40.1136 31.377C40.294 30.1534 39.8699 28.8137 38.691 27.5032C38.0318 26.77 37.3239 26.3809 35.8751 25.8104L35.1433 25.5211L34.9056 25.4234L34.423 25.2074C34.1201 25.0646 33.848 24.919 33.5915 24.7601C33.1843 24.5079 32.8606 24.204 32.6096 23.8589C32.3499 23.5018 32.18 23.1186 32.0827 22.7359C32.0582 22.6396 32.0405 22.5536 32.0282 22.4803L32.0102 22.3514C32.0064 22.3145 32.0044 22.284 32.004 22.2606L32.0042 22.1637C32.0153 21.8013 32.1396 21.3077 32.4693 20.8234C32.8424 20.2751 33.4248 19.8477 34.2749 19.5875C34.7049 19.4559 35.1408 19.3953 35.578 19.3968C35.6089 19.4 35.6402 19.4004 35.6713 19.3981C36.4529 19.4165 37.2374 19.6315 37.9983 19.9925C38.274 20.1233 38.5235 20.2633 38.7415 20.4028L38.902 20.5092L38.997 20.5778C39.2059 20.7396 39.5065 20.7014 39.6683 20.4925C39.8301 20.2835 39.7919 19.983 39.5829 19.8211C39.3511 19.6416 38.948 19.3838 38.4085 19.1278Z" fill="#5AADE4"/>
<path fill-rule="evenodd" clip-rule="evenodd" d="M24.1613 48.2235C14.4132 42.7906 8.14023 43.402 8.14023 43.4251C8.14023 43.4251 8.15283 49.7608 17.6015 57.2864C27.0501 64.812 30.0238 63.6803 35.5242 59.9325C35.5242 59.9325 33.9094 53.6563 24.1613 48.2235Z" fill="#056DAE"/>
<path fill-rule="evenodd" clip-rule="evenodd" d="M44.4025 48.3237C54.6516 41.609 60.6626 41.609 60.6626 41.609C60.6626 41.609 60.6626 52.5786 48.6252 60.146C36.5878 67.7135 39.41 63.3738 34.4489 61.1329C34.4489 61.1329 34.1534 55.0384 44.4025 48.3237Z" fill="#056DAE"/>
<path fill-rule="evenodd" clip-rule="evenodd" d="M56.6307 65.5332C51.3544 65.4728 46.8192 65.4433 41.5428 65.4433C31.7209 65.4433 24.2872 65.397 14.468 65.6246C12.5522 65.6695 10.9552 62.2107 10.9375 60.2452C10.9384 60.3478 50.7909 60.2256 54.4126 60.2256C55.5894 60.2256 56.8194 60.0696 57.9896 60.2256C58.5794 60.3042 58.8229 59.9764 58.9965 60.692C59.232 61.6623 57.1673 65.5403 56.6307 65.5332Z" fill="#ED1C24"/>
<path fill-rule="evenodd" clip-rule="evenodd" d="M63.4375 20.6863C65.1941 20.6863 66.6193 22.1135 66.6193 23.8733C66.6193 22.1135 68.0438 20.6863 69.8011 20.6863C68.0438 20.6863 66.6193 19.2598 66.6193 17.5C66.6193 19.2598 65.1941 20.6863 63.4375 20.6863Z" fill="#ED1C24"/>
<path fill-rule="evenodd" clip-rule="evenodd" d="M7.64316 18.4225C7.64316 20.612 5.86714 22.3868 3.67831 22.3868C5.86714 22.3868 7.64316 24.1626 7.64316 26.3521C7.64316 24.1626 9.41814 22.3868 11.608 22.3868C9.41814 22.3868 7.64316 20.612 7.64316 18.4225Z" fill="#ED1C24"/>
<path fill-rule="evenodd" clip-rule="evenodd" d="M59.7088 1.09375C59.7088 4.17346 57.2146 6.66969 54.1406 6.66969C57.2146 6.66969 59.7088 9.16738 59.7088 12.2471C59.7088 9.16738 62.2016 6.66969 65.277 6.66969C62.2016 6.66969 59.7088 4.17346 59.7088 1.09375Z" fill="#ED1C24"/>
</svg>
