<svg viewBox="0 0 70 70" fill="none" xmlns="http://www.w3.org/2000/svg">
<path d="M11.5922 24.3765C11.6999 24.333 12.0067 24.1687 12.1794 24.3291L12.224 24.3765L35.496 52.3406L58.6417 25.3818C58.7989 25.1974 58.8498 25.4084 59.0481 25.5358C59.0481 25.5358 58.916 25.4174 59.1003 25.5746C59.2847 25.7317 59.2527 25.8966 59.2941 26.0332L59.1541 26.2491L35.482 53.8321L11.4844 24.9838C11.5355 24.7169 11.4844 24.42 11.5922 24.3765Z" fill="#ED1C24"/>
<path d="M42.7574 24.212C42.8299 23.9579 43.0874 23.8612 43.3415 23.9337C43.5761 24.0007 43.7196 24.2314 43.6832 24.4664L43.6703 24.5252L35.3767 54.7885L26.5768 24.4153C26.5007 24.1622 26.7002 23.9522 26.9533 23.8761C27.1869 23.8059 27.3763 23.8659 27.4725 24.0834L27.4933 24.1398L35.3522 51.3841C35.3522 51.3841 42.6849 24.4662 42.7574 24.212Z" fill="#ED1C24"/>
<path fill-rule="evenodd" clip-rule="evenodd" d="M36.4093 0.466766C12.5018 0.466766 11.4844 20.72 11.4844 24.9838C11.4844 24.9838 21.1492 19.1211 26.7447 24.9838C26.7447 24.9838 35.9007 16.9892 43.5308 24.9838C43.5308 24.9838 51.4151 17.7887 59.2997 26.0498C59.2997 26.0498 60.3171 0.466766 36.4093 0.466766Z" fill="#056DAE"/>
<mask id="mask0_131_4914" style="mask-type:alpha" maskUnits="userSpaceOnUse" x="11" y="0" width="49" height="27">
<path fill-rule="evenodd" clip-rule="evenodd" d="M36.4093 0.466766C12.5018 0.466766 11.4844 20.72 11.4844 24.9838C11.4844 24.9838 21.1492 19.1211 26.7447 24.9838C26.7447 24.9838 35.9007 16.9892 43.5308 24.9838C43.5308 24.9838 51.4151 17.7887 59.2997 26.0498C59.2997 26.0498 60.3171 0.466766 36.4093 0.466766Z" fill="white"/>
</mask>
<g mask="url(#mask0_131_4914)">
<path fill-rule="evenodd" clip-rule="evenodd" d="M34.4224 0.473408C34.7408 0.455396 35.6887 0.459706 35.9994 0.466754C35.9959 0.470706 31.0471 4.57278 28.9395 10.1572C26.4528 16.7461 26.7447 24.9838 26.7447 24.9838C26.7447 24.9838 21.9717 19.3458 11.4844 25.0114C11.4844 25.0114 9.46444 1.88871 34.4224 0.473408Z" fill="#1A2E52"/>
<path fill-rule="evenodd" clip-rule="evenodd" d="M37.4721 0.473969C37.1533 0.473969 36.8405 0.47947 36.5298 0.486544C36.5375 0.495387 35.9919 0.477702 35.9996 0.486544C46.1265 12.0798 43.5308 24.9838 43.5308 24.9838C43.5308 24.9838 51.4214 17.9467 59.3059 26.2078C59.3059 26.2078 61.3799 0.473969 37.4721 0.473969Z" fill="#5AADE4"/>
</g>
<path fill-rule="evenodd" clip-rule="evenodd" d="M45.7042 64.0296C40.7459 71.6232 31.4281 69.9185 28.1588 67.8005C25.9946 66.3986 19.7676 61.4985 22.6008 51.8901C24.7958 44.4468 34.1771 39.7795 42.5983 44.6581C48.2232 47.9168 50.6628 56.4359 45.7042 64.0296Z" fill="#B5E2FF"/>
<path fill-rule="evenodd" clip-rule="evenodd" d="M41.5256 44.0878C40.764 45.5473 38.9577 49.0688 37.8853 51.6917C36.5158 55.0409 33.5165 60.8088 31.5601 64.9021C30.8394 66.4101 30.2089 67.5717 29.6978 68.588C34.0077 70.2706 41.4243 70.5175 45.7043 64.0295C50.7585 56.3677 48.1942 47.8262 42.4608 44.5383C42.1635 44.3678 41.8248 44.2354 41.5256 44.0878Z" fill="#E1F4FF"/>
<path fill-rule="evenodd" clip-rule="evenodd" d="M24.6791 52.7033C23.6158 56.3314 23.9856 59.4426 25.451 62.0464C26.4696 63.8564 27.87 65.2035 29.3678 66.1798C30.9734 67.2264 33.6788 67.8806 36.2417 67.6822C39.4923 67.4306 42.2992 65.907 44.2025 62.9743C48.1256 56.9285 46.6646 49.5348 41.5394 46.5472C34.8187 42.6295 26.6565 45.956 24.6791 52.7033ZM41.1263 47.2559C45.8338 50 47.19 56.8634 43.5143 62.5277C41.7571 65.2355 39.185 66.6316 36.1784 66.8643C33.792 67.049 31.2667 66.4384 29.8158 65.4926C28.4196 64.5825 27.1113 63.324 26.1658 61.6441C24.8082 59.2318 24.4655 56.3487 25.4663 52.934C27.2764 46.7574 34.7178 43.6703 40.9382 47.1485L41.1263 47.2559ZM37.201 51.8776C36.7475 51.6624 36.2781 51.5155 35.8017 51.4581L35.7563 50.052C35.7393 49.5228 34.9536 49.5228 34.9364 50.052L34.9288 50.3478C34.9279 50.3979 34.9272 50.4496 34.9268 50.5027L34.9268 50.8339L34.9334 51.1553C34.9369 51.2612 34.9417 51.3614 34.948 51.4553C34.7438 51.4793 34.5393 51.5217 34.3352 51.5842C33.6437 51.7959 33.1414 52.1645 32.8142 52.6453C32.4929 53.1174 32.3891 53.5958 32.3969 53.9633L32.401 54.0627C32.4255 54.4192 32.5655 54.901 32.9157 55.3825C33.1277 55.6741 33.4 55.9298 33.7369 56.1384C33.9693 56.2824 34.2153 56.4092 34.4951 56.5336C34.6203 56.5893 34.7503 56.6438 34.9026 56.7049L35.4416 56.9181L35.7089 57.0295C36.2486 57.263 36.5433 57.4524 36.8035 57.7418C37.4087 58.4146 37.6095 59.0491 37.527 59.6085C37.4683 60.006 36.6554 60.6997 35.9294 60.8339L35.8646 60.8515L35.809 60.8636C35.5577 60.9107 35.2099 60.8943 34.7715 60.7597C34.1112 60.557 33.3781 60.12 32.5823 59.3882C32.4155 59.2349 32.1561 59.2458 32.0028 59.4125C31.8494 59.5792 31.8603 59.8387 32.027 59.992C33.1019 60.9804 34.0734 61.4883 34.9004 61.6519L34.9163 61.9421L34.932 62.351L34.9365 62.6464C34.9365 62.873 35.1201 63.0566 35.3466 63.0566C35.5732 63.0566 35.7568 62.873 35.7568 62.6464C35.7568 62.6037 35.7565 62.5591 35.7558 62.5125L35.7484 62.2122L35.7277 61.743L35.7252 61.7021C35.8055 61.695 35.8839 61.6841 35.9603 61.6698L36.0173 61.6582L36.1071 61.6344L36.1906 61.6171C37.2003 61.3807 38.2274 60.4806 38.3386 59.7282C38.4573 58.9229 38.1793 58.0446 37.4135 57.1933C37.0585 56.7986 36.685 56.558 36.0448 56.2809L35.7534 56.1593L35.2084 55.9437L34.9818 55.8514L34.6836 55.7179C34.4957 55.6293 34.3273 55.5392 34.1689 55.4411C33.9237 55.2892 33.7296 55.1069 33.5791 54.9001C33.4236 54.6863 33.3218 54.4567 33.2636 54.2276C33.2523 54.1831 33.2434 54.1426 33.2367 54.1066L33.222 54.0133L33.2172 53.952L33.2175 53.9079C33.2197 53.8511 33.2289 53.7706 33.2498 53.6742C33.292 53.4796 33.3701 53.2864 33.4924 53.1068C33.7142 52.7808 34.0617 52.5258 34.5753 52.3686C34.8342 52.2894 35.0972 52.2525 35.3613 52.253C35.3829 52.2549 35.4045 52.2552 35.4261 52.2539C35.9028 52.2657 36.3828 52.3973 36.8494 52.6187C37.0193 52.6993 37.1729 52.7856 37.307 52.8713L37.388 52.9246L37.4604 52.9763C37.6395 53.115 37.8972 53.0822 38.0359 52.9031C38.1745 52.724 38.1418 52.4664 37.9627 52.3277C37.8105 52.2099 37.5495 52.0429 37.201 51.8776Z" fill="#5AADE4"/>
</svg>
