<svg width="100" height="100" viewBox="0 0 100 100" fill="none" xmlns="http://www.w3.org/2000/svg">
<g clip-path="url(#clip0_2301_3495)">
<g style="mix-blend-mode:multiply">
<path d="M99.3069 94.1406C99.3069 96.9452 83.4681 99.2188 63.9302 99.2188C44.3925 99.2188 28.554 96.9452 28.554 94.1406C28.554 91.3361 44.3925 89.0625 63.9302 89.0625C83.4681 89.0625 99.3069 91.3361 99.3069 94.1406Z" fill="#A0D6E2"/>
</g>
<path d="M62.2596 24.2178C62.2596 37.1619 51.972 47.6553 39.2817 47.6553C26.5913 47.6553 16.3037 37.1619 16.3037 24.2178C16.3037 11.2736 26.5913 0.780273 39.2817 0.780273C51.972 0.780273 62.2596 11.2736 62.2596 24.2178Z" fill="#A0D6E2"/>
<path d="M29.5764 45.4623C35.1002 48.0878 41.4204 48.3674 47.1464 46.2398C52.8724 44.1122 57.5353 39.7515 60.1093 34.1172C62.6832 28.4828 62.9574 22.0363 60.8715 16.1957C58.7855 10.3552 54.5104 5.59906 48.9865 2.97363L39.2814 24.218L29.5764 45.4623Z" fill="#FFF6F3"/>
<path fill-rule="evenodd" clip-rule="evenodd" d="M58.4301 24.2178C58.4301 13.431 49.8572 4.68652 39.2819 4.68652C28.7066 4.68652 20.1335 13.431 20.1335 24.2178C20.1335 35.0046 28.7066 43.749 39.2819 43.749C49.8572 43.749 58.4301 35.0046 58.4301 24.2178ZM21.8186 24.2178C21.8186 14.3802 29.6372 6.40527 39.2819 6.40527C48.9266 6.40527 56.7451 14.3802 56.7451 24.2178C56.7451 34.0553 48.9266 42.0303 39.2819 42.0303C29.6372 42.0303 21.8186 34.0553 21.8186 24.2178Z" fill="#00141A"/>
<path fill-rule="evenodd" clip-rule="evenodd" d="M38.8786 15.5621L38.8702 15.8243C38.8596 16.236 38.858 16.669 38.8715 17.0784C38.8746 17.1736 38.8785 17.2656 38.8832 17.3544C38.6162 17.39 38.3488 17.4445 38.0819 17.5193C37.0032 17.8215 36.2107 18.3538 35.6879 19.0568C35.2028 19.7091 35.0191 20.3761 35.0041 20.9203L35.0038 21.0537L35.0095 21.1909C35.046 21.733 35.2734 22.4626 35.8457 23.1835C36.1837 23.6094 36.6153 23.9804 37.1456 24.2811C37.5031 24.4837 37.8804 24.6619 38.308 24.8363L38.6067 24.9544L38.9362 25.0782L39.7461 25.3715L40.1271 25.5163C40.1865 25.5397 40.2439 25.5627 40.2995 25.5854L40.6118 25.7191C41.1472 25.9605 41.4873 26.1866 41.7895 26.4943C42.6655 27.3849 42.9441 28.1913 42.832 28.8873C42.761 29.3317 41.5784 30.2553 40.5206 30.4347L40.41 30.4622L40.2208 30.4927C39.8586 30.5341 39.378 30.4992 38.7864 30.3329C37.7935 30.0537 36.6904 29.4517 35.4911 28.4419C35.1648 28.1673 34.6821 28.2143 34.4128 28.5471C34.1435 28.8799 34.1897 29.3723 34.5159 29.6469C36.1238 31.0007 37.5825 31.7166 38.8345 31.9696L38.8358 31.9886L38.8663 32.617L38.8751 32.9133L38.8781 33.1738C38.8781 33.6053 39.2211 33.9551 39.644 33.9551C40.0671 33.9551 40.41 33.6053 40.41 33.1738C40.41 33.113 40.4095 33.0495 40.4085 32.9834L40.3971 32.5579L40.3775 32.1224L40.3731 32.0483C40.4471 32.0397 40.5198 32.0292 40.5915 32.0169L40.6814 32.0001C40.7376 31.9886 40.7862 31.9768 40.8283 31.9645L40.9422 31.9434C42.5333 31.604 44.1586 30.2996 44.3437 29.1396C44.5384 27.931 44.0869 26.6239 42.8713 25.388C42.1927 24.697 41.4827 24.3397 40.0468 23.8218L39.1392 23.4906L38.6598 23.2945C38.3782 23.1729 38.1263 23.0494 37.8897 22.9153C37.5317 22.7123 37.2514 22.4713 37.0363 22.2003C36.8184 21.9259 36.6771 21.634 36.5967 21.3444C36.5891 21.3172 36.5824 21.2913 36.5764 21.2669L36.5493 21.1389L36.5372 21.0521L36.5359 20.9769C36.5388 20.9154 36.5506 20.8214 36.578 20.7057C36.635 20.4657 36.7408 20.2263 36.9083 20.0011C37.2232 19.5776 37.7275 19.239 38.4878 19.026C38.8738 18.9178 39.2664 18.8672 39.6611 18.8675C39.6957 18.8701 39.7306 18.8705 39.7653 18.8687C40.4813 18.8852 41.2029 19.0665 41.9036 19.3711C42.1585 19.4818 42.3887 19.6002 42.5892 19.7176L42.6537 19.756L42.8956 19.9088C43.2327 20.0892 43.6566 19.9895 43.8795 19.6625C44.121 19.3083 44.0352 18.8214 43.6879 18.5751C43.6614 18.5562 43.6328 18.5366 43.6022 18.5161L43.3946 18.3855C43.1637 18.2475 42.8636 18.0898 42.5041 17.9336C41.8443 17.6469 41.1632 17.4459 40.472 17.356L40.4093 15.5678C40.3742 14.567 38.9209 14.5616 38.8786 15.5621Z" fill="#00141A"/>
<path fill-rule="evenodd" clip-rule="evenodd" d="M2.38714 51.8474C2.2724 51.4599 1.87141 51.2406 1.4915 51.3577C1.11158 51.4747 0.896611 51.8837 1.01134 52.2712C1.5987 54.255 2.93371 56.1638 4.55419 57.2514L4.77978 57.3954C5.69287 57.9499 6.72994 58.2459 7.74509 58.2676L7.93699 58.2665L8.0454 58.3791C8.78209 59.1265 9.71773 59.7931 10.7591 60.3254C13.265 61.6064 16.1749 61.5542 18.2459 59.9573C18.5624 59.7132 18.6251 59.2536 18.3858 58.9306C18.1465 58.6077 17.6958 58.5438 17.3792 58.7879C15.7809 60.0204 13.4518 60.0622 11.403 59.0149L11.1691 58.8915C10.7064 58.6396 10.2761 58.3586 9.8889 58.0577L9.72955 57.9301L9.93067 57.8474C10.5308 57.5819 11.0725 57.1894 11.5127 56.6652C12.769 55.1722 12.9006 52.6233 11.23 51.6612C9.83959 50.8587 7.85823 51.5931 6.96701 52.9865L6.85654 53.1688C6.22991 54.2657 6.25127 55.4118 6.72255 56.4936L6.80397 56.6699L6.62633 56.6235C6.18008 56.4944 5.74453 56.2952 5.3438 56.0265C4.01446 55.1344 2.88013 53.5125 2.38714 51.8474ZM8.17031 53.788C8.67983 52.9914 9.8591 52.5543 10.5227 52.9373C11.2409 53.3509 11.1647 54.8281 10.4216 55.711L10.2803 55.867C9.84018 56.3166 9.26142 56.6026 8.62529 56.7277L8.5709 56.7358L8.47458 56.6013C7.81367 55.6397 7.62997 54.6311 8.17031 53.788Z" fill="#005162"/>
<path fill-rule="evenodd" clip-rule="evenodd" d="M36.2319 77.1799L46.9576 76.5588C47.5248 76.524 49.6812 77.2878 49.6693 78.2361C49.6693 78.2361 43.6805 97.0475 39.8668 96.9762C36.053 96.9048 35.416 78.9652 35.416 78.9652C35.2985 78.0239 35.6647 77.213 36.2319 77.1799Z" fill="#00141A"/>
<path fill-rule="evenodd" clip-rule="evenodd" d="M75.9756 76.5588C76.5411 76.524 76.9942 77.2878 76.9839 78.2361C76.9839 78.2361 72.6984 97.0475 68.8847 96.9762C65.0693 96.9048 64.4323 78.9652 64.4323 78.9652C64.3165 78.0239 64.6827 77.213 65.2481 77.1799L75.9756 76.5588Z" fill="#00141A"/>
<path fill-rule="evenodd" clip-rule="evenodd" d="M82.4761 43.0869C82.4761 43.0869 72.1574 43.3113 70.5461 41.0876C69.0557 39.0326 73.8761 26.7341 82.0928 25.5788C82.2495 25.5579 82.5714 25.7406 82.5817 26.1425C82.6277 28.1905 82.7469 35.1089 82.4761 43.0869Z" fill="#00141A"/>
<path fill-rule="evenodd" clip-rule="evenodd" d="M93.4671 69.6827V57.4128H90.3369C89.4636 51.3363 86.8813 45.5847 82.6278 41.5168C79.7921 38.8061 76.2972 36.9564 72.5779 35.753C72.5985 34.3784 72.6121 33.2676 72.6173 32.9392C72.6447 31.2904 72.7474 25.71 72.7474 25.71C68.0196 26.0174 64.214 30.0204 62.0615 33.9013C57.2275 33.5817 52.8703 33.9243 47.6441 34.4797C42.1646 35.0613 36.6524 35.8962 31.517 37.9328C17.4654 43.5027 8.00625 62.2457 16.8968 76.3059C19.0476 79.7048 22.1008 82.295 25.5477 84.3211C26.0255 89.6605 27.1608 97.6164 29.7088 97.6653C31.6044 97.7002 33.6147 93.1031 35.1644 88.4466C42.3101 90.6544 49.1561 91.7093 56.1169 91.4194C56.7745 95.5484 57.8618 99.3787 59.6273 99.4119C61.5092 99.4468 63.5041 94.9161 65.0486 90.2945C66.1497 90.0657 67.2524 89.8334 68.3707 89.5365C73.9786 88.0467 79.5061 85.5892 83.5576 81.3641C85.3436 79.504 86.7649 77.3207 87.8745 74.9593H90.5047C90.5047 74.9593 92.8761 74.9652 93.7051 74.9663L93.4671 69.6827Z" fill="#005162"/>
<path d="M37.7549 30.8194C39.1604 30.4673 40.5177 30.1555 41.827 29.8816L43.1202 29.6205C46.3131 28.9988 49.2056 28.6107 51.7981 28.4226L52.8192 28.3579C56.0019 28.1864 58.7036 28.3286 60.9261 28.7165C62.4424 28.9811 63.4611 30.4493 63.2017 31.9958C62.9423 33.5423 61.5028 34.5815 59.9867 34.3169C58.1049 33.9885 55.7394 33.8723 52.8865 34.0398L51.9693 34.1022C49.7915 34.2702 47.3487 34.5963 44.6394 35.1091L43.462 35.3404C42.0693 35.6238 40.6099 35.9549 39.0836 36.3373C33.1926 37.8131 28.3078 40.3229 24.4631 43.2838C23.2356 44.2293 21.489 43.9806 20.5621 42.7284C19.6352 41.4763 19.879 39.6948 21.1066 38.7494C25.5245 35.347 31.0831 32.4909 37.7549 30.8194Z" fill="#FF1B44"/>
<path fill-rule="evenodd" clip-rule="evenodd" d="M90.7481 59.2817C89.4587 61.524 88.9767 65.1444 88.9954 66.7425C89.021 69.0024 89.6717 71.3116 91.0462 73.0945C92.4531 74.9197 94.4324 75.7962 96.2345 73.9147C96.9005 73.2213 97.3468 72.3254 97.7062 71.4119C98.5028 69.3826 98.9764 67.0118 98.9244 64.8205C98.8852 63.2717 98.5323 61.7 97.7726 60.3518C97.001 58.9789 95.9687 58.3347 94.6078 57.687C92.8807 56.8651 91.6271 57.7539 90.7481 59.2817Z" fill="#00141A"/>
<path fill-rule="evenodd" clip-rule="evenodd" d="M74.2125 52.1981C74.5719 51.6639 75.1459 51.1158 75.9975 51.0392C76.8713 50.9975 77.5203 51.5786 77.8814 52.1215C78.2357 52.6888 78.4061 53.3169 78.4691 53.952C78.0007 53.5135 77.5902 53.0959 77.2001 52.7253C76.7776 52.3982 76.3978 52.1755 76.0657 52.2172C75.7251 52.2155 75.2975 52.4765 74.8785 52.8141C74.4646 53.1655 74.0285 53.5675 73.5686 54.0025C73.6316 53.3604 73.8361 52.7392 74.2125 52.1981Z" fill="#00141A"/>
<path fill-rule="evenodd" clip-rule="evenodd" d="M73.8635 20.7491C76.3237 20.7491 78.3199 22.788 78.3199 25.302C78.3199 22.788 80.3149 20.7491 82.7762 20.7491C80.3149 20.7491 78.3199 18.7113 78.3199 16.1973C78.3199 18.7113 76.3237 20.7491 73.8635 20.7491Z" fill="#FF1B44"/>
<path fill-rule="evenodd" clip-rule="evenodd" d="M69.132 5.22363C69.132 8.3516 66.6447 10.887 63.5791 10.887C66.6447 10.887 69.132 13.4238 69.132 16.5518C69.132 13.4238 71.618 10.887 74.6851 10.887C71.618 10.887 69.132 8.3516 69.132 5.22363Z" fill="#FF1B44"/>
<path fill-rule="evenodd" clip-rule="evenodd" d="M91.1641 0.927734C91.1641 5.32732 87.6708 8.89336 83.3655 8.89336C87.6708 8.89336 91.1641 12.4615 91.1641 16.8611C91.1641 12.4615 94.6553 8.89336 98.9628 8.89336C94.6553 8.89336 91.1641 5.32732 91.1641 0.927734Z" fill="#FF1B44"/>
</g>
<defs>
<clipPath id="clip0_2301_3495">
<rect width="100" height="100" fill="white"/>
</clipPath>
</defs>
</svg>
