<svg width="100" height="100" viewBox="0 0 100 100" fill="none" xmlns="http://www.w3.org/2000/svg">
<path fill-rule="evenodd" clip-rule="evenodd" d="M54.26 82.1507C54.26 82.1507 71.4072 82.5921 77.5613 82.8031C83.7155 83.0142 91.5684 83.8237 93.8219 84.5257C95.165 84.9441 95.4091 85.3378 95.4128 85.6956C95.4274 87.2143 80.2456 89.2754 75.3071 89.9701C66.053 91.2719 57.8581 92.278 49.2944 92.278C48.6648 92.278 35.8305 89.1788 32.6325 87.1281C31.2346 86.2317 35.1277 84.5257 38.1568 84.0954C41.1859 83.665 54.26 82.1507 54.26 82.1507Z" fill="#A0D6E2"/>
<path fill-rule="evenodd" clip-rule="evenodd" d="M67.7029 75.4365L74.0934 58.1181L94.1358 63.1872C94.1358 63.1872 94.4477 63.2986 94.4881 63.3624C94.5789 63.5045 94.4074 63.6462 94.3367 63.7031C93.6074 64.2968 92.8175 65.0431 91.9688 65.9423C90.4292 67.5726 87.6065 70.9544 87.6065 70.9544C87.6065 70.9544 87.8903 73.1125 88.2918 75.0477C88.6932 76.9828 89.6509 80.8076 89.6509 80.8076C89.6509 80.8076 86.1666 79.8629 82.6034 79.0283C79.0403 78.1938 71.5831 76.5759 71.5831 76.5759L67.7029 75.4365Z" fill="#730C1E"/>
<path fill-rule="evenodd" clip-rule="evenodd" d="M30.8699 75.1963L24.3626 58.1181C24.3626 58.1181 18.9209 59.1101 15.8619 59.8837C12.803 60.6574 11.425 61.3199 7.77247 62.3589C5.828 62.9119 4.5643 63.2344 3.98136 63.3262C3.92304 63.3354 3.686 63.352 3.67015 63.4056C3.65936 63.4419 3.83607 63.6455 3.83607 63.6455C3.83607 63.6455 7.21368 67.3068 8.94693 69.1131C10.6802 70.9193 10.8496 70.9544 10.8496 70.9544C10.8496 70.9544 10.5112 72.1323 9.91215 75.0196C9.67656 76.1554 9.50766 77.3646 9.29325 78.5035C9.20224 78.9865 9.0582 79.6712 8.86108 80.5575C8.85255 80.5958 8.77683 80.6894 8.86108 80.7313C8.89641 80.7489 9.10512 80.7313 9.10512 80.7313C9.10512 80.7313 15.1196 79.3602 20.3874 78.0205C25.6553 76.6808 30.8699 75.1963 30.8699 75.1963Z" fill="#730C1E"/>
<path fill-rule="evenodd" clip-rule="evenodd" d="M18.1672 27.1924C32.9937 25.7941 43.2371 18.6013 48.8143 14.4111C48.9177 14.3334 49.14 14.1357 49.4131 14.1542C49.6846 14.1724 50.0068 14.4062 50.1303 14.4988C55.7625 18.7209 66.0291 25.8609 80.8377 27.2092C80.9419 27.2187 81.1547 27.2918 81.2786 27.4413C81.3809 27.565 81.4059 27.7593 81.4047 27.8506C81.3518 31.6707 81.0614 37.0969 80.0878 43.2605C79.618 46.2347 78.8109 49.3678 77.9727 52.5877C74.2276 66.9756 66.4798 82.8553 49.9125 91.4925C49.8363 91.5322 49.6959 91.6516 49.5232 91.6643C49.3169 91.6797 49.0762 91.5818 49.003 91.5439C21.0925 77.1032 17.6444 42.136 17.4214 28.0573C17.4189 27.8977 17.5051 27.6343 17.6954 27.4413C17.8323 27.3025 18.0624 27.2023 18.1672 27.1924Z" fill="#003746"/>
<path fill-rule="evenodd" clip-rule="evenodd" d="M24.0139 31.334C36.6445 30.28 45.2043 25.0763 49.6153 21.6019C54.0323 25.0793 62.594 30.279 75.2133 31.334C75.1269 42.5604 72.7091 73.9007 49.9858 86.2285C49.9297 86.2589 49.7448 86.3428 49.6153 86.3516C49.4582 86.3623 49.354 86.292 49.2969 86.2612C26.5238 73.984 24.0998 42.5915 24.0139 31.334Z" fill="#A0D6E2"/>
<path fill-rule="evenodd" clip-rule="evenodd" d="M49.4146 28.545C53.0295 31.3705 60.0364 35.5952 70.364 36.4523C70.364 43.2635 65.2317 71.5789 49.4114 81.2169" fill="#FFF6F3"/>
<path fill-rule="evenodd" clip-rule="evenodd" d="M17.0745 54.855C17.0745 54.855 17.5969 59.2816 17.8275 61.0098C18.0547 62.7132 18.3162 64.0698 18.4521 65.1763C18.8627 68.5201 19.5391 74.9235 19.5391 74.9235C19.5391 74.9235 19.7527 75.1218 19.8764 75.1615C20.1961 75.2641 20.5083 75.2068 20.6783 75.1615C27.3155 73.3916 32.393 72.3438 35.911 72.0182C40.2035 71.621 44.2375 71.2223 48.3988 71.2223C57.8466 71.2223 68.2209 72.59 79.5218 75.3254C79.6047 75.3454 79.7923 75.4677 79.9582 75.3254C80.0209 75.2716 80.101 74.9457 80.101 74.9457L82.6036 55.4025C82.6036 55.4025 82.5002 55.0907 82.4198 54.9771C82.2478 54.7338 82.0281 54.6096 81.912 54.5666C75.459 52.1723 67.9959 50.4205 59.3581 49.9395C55.8434 49.7439 52.2268 49.5198 48.3988 49.5198C42.7559 49.5198 37.7443 49.9395 33.1146 50.4318C26.5396 51.131 17.0745 54.855 17.0745 54.855Z" fill="#FF1B44"/>
<path d="M49.4257 53.1431L50.9991 56.7933L51.0645 56.9207C51.2356 57.2046 51.5317 57.3925 51.8645 57.4205L55.825 57.7527L52.8469 60.2906L52.7422 60.3933C52.5168 60.6478 52.4257 61.0009 52.5056 61.3395L53.4119 65.1765L49.9501 63.1246L49.807 63.054C49.5132 62.9364 49.1789 62.9599 48.9014 63.1246L45.4396 65.1765L46.3457 61.3529L46.3696 61.2072C46.4017 60.8667 46.2676 60.5277 46.0046 60.3035L43.0251 57.7653L46.987 57.4334C47.3676 57.4014 47.7002 57.1602 47.8527 56.8055L49.4257 53.1431Z" fill="#FFF6F3"/>
<path d="M67.2495 55.3114L68.8228 58.9617L68.8882 59.089C69.0593 59.373 69.3554 59.5608 69.6882 59.5888L73.6487 59.921L70.6706 62.4589L70.5659 62.5616C70.3406 62.8161 70.2494 63.1693 70.3294 63.5078L71.2357 67.3448L67.7738 65.293L67.6308 65.2223C67.3369 65.1047 67.0027 65.1282 66.7251 65.293L63.2633 67.3448L64.1694 63.5212L64.1935 63.3756C64.2254 63.035 64.0914 62.6959 63.8283 62.4718L60.8489 59.9336L64.8107 59.6018C65.1914 59.5697 65.5239 59.3285 65.6764 58.9738L67.2495 55.3114Z" fill="#FFF6F3"/>
<path d="M31.5131 55.3114L33.0865 58.9617L33.1519 59.089C33.323 59.373 33.6191 59.5608 33.9519 59.5888L37.9124 59.921L34.9343 62.4589L34.8296 62.5616C34.6042 62.8161 34.5131 63.1693 34.593 63.5078L35.4993 67.3448L32.0375 65.293L31.8944 65.2223C31.6006 65.1047 31.2663 65.1282 30.9888 65.293L27.527 67.3448L28.4331 63.5212L28.457 63.3756C28.4891 63.035 28.355 62.6959 28.092 62.4718L25.1125 59.9336L29.0744 59.6018C29.455 59.5697 29.7876 59.3285 29.9401 58.9738L31.5131 55.3114Z" fill="#FFF6F3"/>
<path fill-rule="evenodd" clip-rule="evenodd" d="M3.67017 38.7031C6.54067 38.7031 8.86981 41.062 8.86981 43.9707C8.86981 41.062 11.1976 38.7031 14.0694 38.7031C11.1976 38.7031 8.86981 36.3455 8.86981 33.4369C8.86981 36.3455 6.54067 38.7031 3.67017 38.7031Z" fill="#FF1B44"/>
<path fill-rule="evenodd" clip-rule="evenodd" d="M11.2156 13.8975C14.1041 13.8975 16.4478 16.2712 16.4478 19.1981C16.4478 16.2712 18.7902 13.8975 21.68 13.8975C18.7902 13.8975 16.4478 11.5251 16.4478 8.59827C16.4478 11.5251 14.1041 13.8975 11.2156 13.8975Z" fill="#A0D6E2"/>
<path fill-rule="evenodd" clip-rule="evenodd" d="M78.9277 8.44721C83.5484 8.44721 87.2976 12.2311 87.2976 16.8967C87.2976 12.2311 91.0446 8.44721 95.667 8.44721C91.0446 8.44721 87.2976 4.66557 87.2976 0C87.2976 4.66557 83.5484 8.44721 78.9277 8.44721Z" fill="#FF1B44"/>
</svg>
