<svg viewBox="0 0 70 70" fill="none" xmlns="http://www.w3.org/2000/svg">
<path fill-rule="evenodd" clip-rule="evenodd" d="M34.9987 69.9006C15.6703 69.9006 0 68.4314 0 66.6193C0 64.8083 15.6703 63.3381 34.9987 63.3381C54.3297 63.3381 70 64.8083 70 66.6193C70 68.4314 54.3297 69.9006 34.9987 69.9006Z" fill="#D2EDFF"/>
<path fill-rule="evenodd" clip-rule="evenodd" d="M16.1375 24.7494L54.2916 24.6094C55.4195 24.6056 56.3366 25.4722 56.3281 26.5351L56.0726 59.1719C56.064 60.2347 55.1325 61.1071 54.0046 61.1109L15.8506 61.2499C11.6136 61.2652 8.17188 58.0119 8.20334 54.0224L8.37495 32.0284C8.40737 28.0389 11.8997 24.7637 16.1375 24.7494Z" fill="#1A2E52"/>
<path fill-rule="evenodd" clip-rule="evenodd" d="M17.0412 9.90516C17.2876 8.75388 18.1714 8.04998 19.3729 8.04998C24.8832 8.04998 39.4035 8.04998 40.1715 8.04998C40.9396 8.04998 41.9939 8.03277 42.5922 8.27054C42.826 8.36439 43.1702 8.52679 43.3579 8.95958C43.5456 9.39237 43.6961 10.6528 43.7023 10.8569C43.9401 18.4122 43.8756 25.0031 43.806 32.5615C43.7787 35.453 43.853 46.3893 43.6183 48.896C43.5479 49.6633 42.9066 50.2459 42.1472 50.3758C39.7586 50.7864 37.1925 50.4696 34.7789 50.4649C29.4644 50.4524 24.1421 50.4141 18.8307 50.4141C17.6896 50.3492 17.333 49.8517 16.974 48.7263C16.3256 46.6975 16.4015 12.8928 17.0412 9.90516Z" fill="#3ABAED"/>
<mask id="mask0_131_4910" style="mask-type:alpha" maskUnits="userSpaceOnUse" x="16" y="8" width="28" height="43">
<path fill-rule="evenodd" clip-rule="evenodd" d="M17.0412 9.90516C17.2876 8.75388 18.1714 8.04998 19.3729 8.04998C24.8832 8.04998 39.4035 8.04998 40.1715 8.04998C40.9396 8.04998 41.9939 8.03277 42.5922 8.27054C42.826 8.36439 43.1702 8.52679 43.3579 8.95958C43.5456 9.39237 43.6961 10.6528 43.7023 10.8569C43.9401 18.4122 43.8756 25.0031 43.806 32.5615C43.7787 35.453 43.853 46.3893 43.6183 48.896C43.5479 49.6633 42.9066 50.2459 42.1472 50.3758C39.7586 50.7864 37.1925 50.4696 34.7789 50.4649C29.4644 50.4524 24.1421 50.4141 18.8307 50.4141C17.6896 50.3492 17.333 49.8517 16.974 48.7263C16.3256 46.6975 16.4015 12.8928 17.0412 9.90516Z" fill="white"/>
</mask>
<g mask="url(#mask0_131_4910)">
<path fill-rule="evenodd" clip-rule="evenodd" d="M23.6932 50.5859L23.6932 7.56955H19.0005L19.0005 50.5859H23.6932Z" fill="#1A2E52"/>
<path fill-rule="evenodd" clip-rule="evenodd" d="M36.913 14.1825C36.913 14.8342 36.9892 16.1413 36.9892 16.1413C37.1489 17.7914 38.2148 18.5192 39.7262 18.5192C41.2385 18.5192 42.464 17.2443 42.464 15.6729C42.464 15.6729 42.5169 14.213 42.5169 13.4615C42.5169 12.9821 42.464 11.9801 42.464 11.9801C42.338 10.3037 41.2385 9.13379 39.7262 9.13379C38.2148 9.13379 36.9892 10.4071 36.9892 11.9801C36.9892 11.9801 36.913 13.4471 36.913 14.1825Z" fill="#E1F4FF"/>
</g>
<path fill-rule="evenodd" clip-rule="evenodd" d="M30.1662 16.4677C30.4126 15.3164 31.2964 14.6125 32.4979 14.6125C38.0082 14.6125 52.5285 14.6125 53.2965 14.6125C54.0646 14.6125 55.1189 14.5953 55.7172 14.833C55.951 14.9269 56.2952 15.0893 56.4829 15.5221C56.6706 15.9549 56.8211 17.2153 56.8273 17.4194C57.0651 24.9747 57.0006 31.5656 56.931 39.124C56.9037 42.0155 56.978 52.9518 56.7433 55.4585C56.6729 56.2258 56.0316 56.8084 55.2722 56.9383C52.8836 57.3489 50.3175 57.0321 47.9039 57.0274C42.5894 57.0149 37.2671 56.9766 31.9557 56.9766C30.8146 56.9117 30.458 56.4142 30.099 55.2888C29.4506 53.26 29.5265 19.4553 30.1662 16.4677Z" fill="#ED1C24"/>
<mask id="mask1_131_4910" style="mask-type:alpha" maskUnits="userSpaceOnUse" x="29" y="14" width="28" height="44">
<path fill-rule="evenodd" clip-rule="evenodd" d="M30.1662 16.4677C30.4126 15.3164 31.2964 14.6125 32.4979 14.6125C38.0082 14.6125 52.5285 14.6125 53.2965 14.6125C54.0646 14.6125 55.1189 14.5953 55.7172 14.833C55.951 14.9269 56.2952 15.0893 56.4829 15.5221C56.6706 15.9549 56.8211 17.2153 56.8273 17.4194C57.0651 24.9747 57.0006 31.5656 56.931 39.124C56.9037 42.0155 56.978 52.9518 56.7433 55.4585C56.6729 56.2258 56.0316 56.8084 55.2722 56.9383C52.8836 57.3489 50.3175 57.0321 47.9039 57.0274C42.5894 57.0149 37.2671 56.9766 31.9557 56.9766C30.8146 56.9117 30.458 56.4142 30.099 55.2888C29.4506 53.26 29.5265 19.4553 30.1662 16.4677Z" fill="white"/>
</mask>
<g mask="url(#mask1_131_4910)">
<path fill-rule="evenodd" clip-rule="evenodd" d="M36.8182 57.1484V14.132H32.1255V57.1484H36.8182Z" fill="#1A2E52"/>
<path fill-rule="evenodd" clip-rule="evenodd" d="M43.0751 55.5842V31.3386H38.3824V55.5842H43.0751Z" fill="#E1F4FF"/>
<path fill-rule="evenodd" clip-rule="evenodd" d="M50.038 20.745C50.038 21.3967 50.1142 22.7038 50.1142 22.7038C50.2739 24.3539 51.3398 25.0817 52.8512 25.0817C54.3635 25.0817 55.589 23.8068 55.589 22.2354C55.589 22.2354 55.6419 20.7755 55.6419 20.024C55.6419 19.5446 55.589 18.5426 55.589 18.5426C55.463 16.8662 54.3635 15.6963 52.8512 15.6963C51.3398 15.6963 50.1142 16.9696 50.1142 18.5426C50.1142 18.5426 50.038 20.0096 50.038 20.745Z" fill="#E1F4FF"/>
</g>
<path fill-rule="evenodd" clip-rule="evenodd" d="M59.4277 31.1065C58.5428 29.9527 57.0391 29.4148 55.5775 29.2493C50.8798 28.7171 45.9564 29.1741 41.2196 29.0415C34.1008 28.8422 27.0089 29.2569 19.895 29.2569C16.7823 29.3218 13.6668 29.287 10.5542 29.2926C10.096 29.2935 9.62438 29.2973 9.20349 29.4713C7.15071 30.3204 7.70934 33.8691 7.77248 35.5476C7.89779 38.9685 7.82604 42.3837 7.82604 45.8046C7.82604 51.3535 7.97049 56.9399 7.71987 62.4737C7.67873 63.3886 7.86622 64.4145 8.61521 64.9618C9.21975 65.4056 10.0347 65.4225 10.7895 65.4206C23.3453 65.3896 36.079 66.0225 48.6099 65.2044L53.3095 65.1893C57.5605 65.1752 60.1633 63.713 60.1948 59.775C60.2369 54.6615 60.543 49.5556 60.6511 44.444C60.7037 41.9427 60.7496 39.4236 60.6148 36.9242C60.543 35.5777 60.5861 33.9857 60.1709 32.611C60.0073 32.0656 59.7711 31.555 59.4277 31.1065Z" fill="#056DAE"/>
<path fill-rule="evenodd" clip-rule="evenodd" d="M48.4614 32.9536C48.688 32.9526 48.8723 33.1355 48.8733 33.362C48.8742 33.5886 48.6913 33.7729 48.4648 33.7739L47.207 33.779C46.9804 33.7799 46.7961 33.597 46.7952 33.3705C46.7942 33.1439 46.9771 32.9596 47.2036 32.9587L48.4614 32.9536ZM45.7014 33.3749C45.7005 33.1484 45.5161 32.9655 45.2896 32.9664L44.0318 32.9715C43.8053 32.9724 43.6224 33.1568 43.6233 33.3833C43.6242 33.6098 43.8086 33.7927 44.0351 33.7918L45.2929 33.7867C45.5194 33.7858 45.7023 33.6014 45.7014 33.3749ZM42.1178 32.9793C42.3443 32.9783 42.5286 33.1612 42.5296 33.3878C42.5305 33.6143 42.3476 33.7987 42.1211 33.7996L40.8633 33.8047C40.6368 33.8056 40.4524 33.6227 40.4515 33.3962C40.4505 33.1697 40.6334 32.9853 40.8599 32.9844L42.1178 32.9793ZM39.3577 33.4006C39.3568 33.1741 39.1724 32.9912 38.9459 32.9921L37.6881 32.9972C37.4616 32.9981 37.2787 33.1825 37.2796 33.409C37.2805 33.6356 37.4649 33.8184 37.6914 33.8175L38.9492 33.8124C39.1757 33.8115 39.3586 33.6271 39.3577 33.4006ZM35.7741 33.005C36.0006 33.0041 36.1849 33.1869 36.1859 33.4135C36.1868 33.64 36.0039 33.8244 35.7774 33.8253L34.5196 33.8304C34.2931 33.8313 34.1087 33.6484 34.1078 33.4219C34.1068 33.1954 34.2897 33.011 34.5163 33.0101L35.7741 33.005ZM33.014 33.4263C33.0131 33.1998 32.8287 33.0169 32.6022 33.0178L31.3444 33.0229C31.1179 33.0238 30.935 33.2082 30.9359 33.4347C30.9368 33.6613 31.1212 33.8442 31.3477 33.8432L32.6055 33.8381C32.8321 33.8372 33.0149 33.6528 33.014 33.4263ZM29.4304 33.0307C29.6569 33.0298 29.8413 33.2127 29.8422 33.4392C29.8431 33.6657 29.6602 33.8501 29.4337 33.851L28.1759 33.8561C27.9494 33.857 27.765 33.6741 27.7641 33.4476C27.7631 33.2211 27.946 33.0367 28.1726 33.0358L29.4304 33.0307ZM26.6703 33.452C26.6694 33.2255 26.485 33.0426 26.2585 33.0435L25.0007 33.0486C24.7742 33.0496 24.5913 33.2339 24.5922 33.4605C24.5931 33.687 24.7775 33.8699 25.004 33.8689L26.2618 33.8638C26.4884 33.8629 26.6712 33.6786 26.6703 33.452ZM23.0867 33.0564C23.3132 33.0555 23.4976 33.2384 23.4985 33.4649C23.4994 33.6914 23.3165 33.8758 23.09 33.8767L21.8322 33.8818C21.6057 33.8827 21.4213 33.6998 21.4204 33.4733C21.4194 33.2468 21.6023 33.0624 21.8289 33.0615L23.0867 33.0564ZM20.3266 33.4777C20.3257 33.2512 20.1413 33.0683 19.9148 33.0693L18.657 33.0743C18.4305 33.0753 18.2476 33.2596 18.2485 33.4862C18.2494 33.7127 18.4338 33.8956 18.6603 33.8947L19.9181 33.8896C20.1447 33.8886 20.3275 33.7043 20.3266 33.4777ZM16.743 33.0821C16.9695 33.0812 17.1539 33.2641 17.1548 33.4906C17.1557 33.7171 16.9728 33.9015 16.7463 33.9024L15.4885 33.9075C15.262 33.9084 15.0776 33.7255 15.0767 33.499C15.0757 33.2725 15.2586 33.0881 15.4852 33.0872L16.743 33.0821ZM13.9395 33.6918C13.8017 33.512 13.5443 33.4779 13.3644 33.6156C12.9471 33.9353 12.6442 34.3746 12.5075 34.8697C12.4472 35.0881 12.5753 35.314 12.7936 35.3742C13.012 35.4345 13.2379 35.3064 13.2982 35.0881C13.3865 34.7682 13.5855 34.4797 13.8633 34.2669C14.0431 34.1291 14.0772 33.8717 13.9395 33.6918ZM12.4108 36.8838C12.4132 36.6572 12.5988 36.4756 12.8253 36.4781C13.0518 36.4805 13.2335 36.6661 13.231 36.8926L13.2174 38.1504C13.215 38.3769 13.0293 38.5585 12.8028 38.5561C12.5763 38.5536 12.3947 38.368 12.3971 38.1415L12.4108 36.8838ZM56.7251 40.0986C56.7227 40.3251 56.5372 40.5068 56.3107 40.5045C56.0842 40.5021 55.9024 40.3166 55.9048 40.0901L55.918 38.8323C55.9203 38.6058 56.1059 38.4241 56.3324 38.4265C56.5589 38.4288 56.7406 38.6144 56.7382 38.8409L56.7251 40.0986ZM56.6919 43.2703C56.6896 43.4968 56.504 43.6785 56.2775 43.6762C56.051 43.6738 55.8693 43.4883 55.8717 43.2618L55.8848 42.004C55.8872 41.7775 56.0727 41.5958 56.2992 41.5982C56.5257 41.6005 56.7074 41.7861 56.7051 42.0126L56.6919 43.2703ZM56.2444 46.8479C56.4709 46.8502 56.6564 46.6685 56.6588 46.442L56.6719 45.1843C56.6743 44.9578 56.4926 44.7722 56.2661 44.7699C56.0396 44.7675 55.854 44.9492 55.8517 45.1757L55.8385 46.4335C55.8361 46.66 56.0178 46.8455 56.2444 46.8479ZM56.6256 49.6137C56.6233 49.8402 56.4377 50.0219 56.2112 50.0196C55.9847 50.0172 55.803 49.8317 55.8054 49.6052L55.8185 48.3474C55.8209 48.1209 56.0064 47.9392 56.2329 47.9416C56.4594 47.9439 56.6411 48.1295 56.6388 48.356L56.6256 49.6137ZM56.178 53.1913C56.4046 53.1936 56.5901 53.0119 56.5925 52.7854L56.6056 51.5277C56.608 51.3012 56.4263 51.1156 56.1998 51.1133C55.9733 51.1109 55.7877 51.2926 55.7853 51.5191L55.7722 52.7769C55.7698 53.0034 55.9515 53.1889 56.178 53.1913ZM56.5521 55.9733C56.5409 56.1995 56.3483 56.3738 56.1221 56.3625C55.8958 56.3512 55.7216 56.1587 55.7329 55.9324C55.7386 55.8162 55.742 55.6977 55.7429 55.5756L55.7522 54.6908C55.7546 54.4643 55.9401 54.2826 56.1666 54.285C56.3931 54.2873 56.5748 54.4729 56.5725 54.6994L56.5632 55.5831C56.5622 55.7154 56.5585 55.8455 56.5521 55.9733ZM54.9479 59.2766C55.1302 59.411 55.387 59.3722 55.5214 59.1898C55.7879 58.8284 56.0036 58.4247 56.1681 57.9787C56.2465 57.7662 56.1378 57.5303 55.9253 57.4519C55.7127 57.3735 55.4769 57.4823 55.3985 57.6948C55.2604 58.0692 55.0812 58.4045 54.8611 58.703C54.7267 58.8854 54.7655 59.1421 54.9479 59.2766ZM52.664 61.0811C52.4472 61.1466 52.2183 61.0239 52.1528 60.807C52.0874 60.5902 52.2101 60.3613 52.4269 60.2958C52.8268 60.1751 53.1892 60.027 53.5144 59.8511C53.7137 59.7434 53.9626 59.8176 54.0703 60.0168C54.178 60.2161 54.1039 60.4649 53.9046 60.5727C53.5289 60.7758 53.1154 60.9448 52.664 61.0811ZM49.0202 61.1129C49.0233 61.3394 49.2095 61.5205 49.436 61.5174C49.8879 61.5111 50.3179 61.4881 50.7264 61.448C50.9518 61.4259 51.1166 61.2252 51.0945 60.9998C51.0724 60.7743 50.8717 60.6095 50.6462 60.6316C50.2614 60.6694 49.8542 60.6912 49.4246 60.6971C49.1981 60.7003 49.017 60.8864 49.0202 61.1129ZM46.2438 61.5313C46.0172 61.5322 45.8329 61.3493 45.8319 61.1228C45.831 60.8963 46.0139 60.7119 46.2404 60.7109L47.4982 60.7058C47.7247 60.7049 47.9091 60.8878 47.91 61.1143C47.911 61.3408 47.7281 61.5252 47.5016 61.5261L46.2438 61.5313ZM42.6601 61.1357C42.661 61.3622 42.8454 61.5451 43.0719 61.5442L44.3297 61.5391C44.5562 61.5381 44.7391 61.3538 44.7382 61.1272C44.7373 60.9007 44.5529 60.7178 44.3264 60.7188L43.0686 60.7239C42.8421 60.7248 42.6592 60.9092 42.6601 61.1357ZM39.9001 61.5571C39.6735 61.558 39.4892 61.3752 39.4882 61.1486C39.4873 60.9221 39.6702 60.7377 39.8967 60.7368L41.1545 60.7317C41.381 60.7308 41.5654 60.9136 41.5664 61.1402C41.5673 61.3667 41.3844 61.5511 41.1579 61.552L39.9001 61.5571ZM36.3164 61.1616C36.3173 61.3881 36.5017 61.571 36.7282 61.5701L37.986 61.5649C38.2125 61.564 38.3954 61.3796 38.3945 61.1531C38.3936 60.9266 38.2092 60.7437 37.9827 60.7446L36.7249 60.7498C36.4984 60.7507 36.3155 60.9351 36.3164 61.1616ZM33.5564 61.583C33.3299 61.5839 33.1455 61.401 33.1445 61.1745C33.1436 60.948 33.3265 60.7636 33.553 60.7627L34.8108 60.7576C35.0373 60.7566 35.2217 60.9395 35.2227 61.166C35.2236 61.3926 35.0407 61.5769 34.8142 61.5779L33.5564 61.583ZM29.9727 61.1874C29.9736 61.414 30.158 61.5968 30.3845 61.5959L31.6423 61.5908C31.8688 61.5899 32.0517 61.4055 32.0508 61.179C32.0499 60.9524 31.8655 60.7696 31.639 60.7705L30.3812 60.7756C30.1547 60.7765 29.9718 60.9609 29.9727 61.1874ZM27.2127 61.6089C26.9862 61.6098 26.8018 61.4269 26.8009 61.2004C26.7999 60.9739 26.9828 60.7895 27.2093 60.7886L28.4671 60.7834C28.6937 60.7825 28.878 60.9654 28.879 61.1919C28.8799 61.4184 28.697 61.6028 28.4705 61.6037L27.2127 61.6089ZM23.629 61.2133C23.6299 61.4398 23.8143 61.6227 24.0408 61.6218L25.2986 61.6167C25.5251 61.6157 25.708 61.4314 25.7071 61.2048C25.7062 60.9783 25.5218 60.7954 25.2953 60.7964L24.0375 60.8015C23.811 60.8024 23.6281 60.9868 23.629 61.2133ZM20.869 61.6347C20.6425 61.6357 20.4581 61.4528 20.4572 61.2262C20.4562 60.9997 20.6391 60.8153 20.8656 60.8144L22.1234 60.8093C22.35 60.8084 22.5343 60.9913 22.5353 61.2178C22.5362 61.4443 22.3533 61.6287 22.1268 61.6296L20.869 61.6347ZM17.2853 61.2392C17.2862 61.4657 17.4706 61.6486 17.6971 61.6477L18.9549 61.6425C19.1815 61.6416 19.3643 61.4572 19.3634 61.2307C19.3625 61.0042 19.1781 60.8213 18.9516 60.8222L17.6938 60.8274C17.4673 60.8283 17.2844 61.0127 17.2853 61.2392ZM14.5051 61.6575C14.2788 61.6473 14.1037 61.4556 14.1139 61.2293C14.1241 61.003 14.3158 60.8278 14.5421 60.8381L14.6283 60.8399L15.7797 60.8352C16.0063 60.8342 16.1906 61.0171 16.1916 61.2436C16.1925 61.4702 16.0096 61.6545 15.7831 61.6555L14.6313 61.6602C14.5892 61.6603 14.5471 61.6594 14.5051 61.6575ZM12.5837 58.6799C12.3572 58.6781 12.1721 58.8602 12.1703 59.0868L12.1682 59.3522C12.1762 59.7977 12.3097 60.2143 12.5499 60.5741C12.6757 60.7625 12.9304 60.8133 13.1188 60.6875C13.3072 60.5618 13.3579 60.3071 13.2322 60.1187C13.0781 59.8879 12.9935 59.6238 12.9884 59.348L12.9906 59.0933C12.9924 58.8668 12.8102 58.6817 12.5837 58.6799ZM12.2047 55.9139C12.2071 55.6874 12.3927 55.5058 12.6193 55.5082C12.8458 55.5107 13.0274 55.6963 13.0249 55.9228L13.0113 57.1805C13.0089 57.407 12.8233 57.5887 12.5968 57.5862C12.3702 57.5838 12.1886 57.3981 12.1911 57.1716L12.2047 55.9139ZM12.6536 52.3365C12.4271 52.3341 12.2415 52.5157 12.239 52.7422L12.2254 53.9999C12.223 54.2265 12.4046 54.4121 12.6311 54.4145C12.8576 54.417 13.0432 54.2353 13.0457 54.0088L13.0593 52.7511C13.0617 52.5246 12.8801 52.339 12.6536 52.3365ZM12.2734 49.5705C12.2758 49.344 12.4614 49.1624 12.6879 49.1648C12.9145 49.1673 13.0961 49.3529 13.0936 49.5794L13.08 50.8371C13.0776 51.0636 12.892 51.2453 12.6654 51.2428C12.4389 51.2404 12.2573 51.0548 12.2598 50.8283L12.2734 49.5705ZM12.7223 45.9931C12.4958 45.9907 12.3102 46.1723 12.3077 46.3988L12.2941 47.6566C12.2916 47.8831 12.4733 48.0687 12.6998 48.0711C12.9263 48.0736 13.1119 47.892 13.1144 47.6654L13.128 46.4077C13.1304 46.1812 12.9488 45.9956 12.7223 45.9931ZM12.3421 43.2271C12.3445 43.0006 12.5301 42.819 12.7566 42.8214C12.9832 42.8239 13.1648 43.0095 13.1623 43.236L13.1487 44.4938C13.1463 44.7203 12.9607 44.9019 12.7341 44.8995C12.5076 44.897 12.326 44.7114 12.3284 44.4849L12.3421 43.2271ZM12.791 39.6498C12.5645 39.6473 12.3789 39.8289 12.3764 40.0554L12.3628 41.3132C12.3603 41.5397 12.542 41.7253 12.7685 41.7278C12.995 41.7302 13.1806 41.5486 13.1831 41.3221L13.1967 40.0643C13.1991 39.8378 13.0175 39.6522 12.791 39.6498ZM52.0345 33.5575C52.068 33.3334 51.9135 33.1247 51.6895 33.0912C51.2832 33.0304 50.8524 32.9895 50.3966 32.9677C50.1703 32.9569 49.9781 33.1316 49.9673 33.3578C49.9565 33.5841 50.1312 33.7763 50.3575 33.7871C50.7866 33.8076 51.1901 33.8459 51.5682 33.9025C51.7923 33.936 52.001 33.7815 52.0345 33.5575ZM54.8396 34.2956C55.0195 34.4332 55.0539 34.6906 54.9163 34.8706C54.7787 35.0505 54.5213 35.0849 54.3414 34.9473C54.0498 34.7245 53.716 34.5339 53.3391 34.3751C53.1303 34.2871 53.0324 34.0466 53.1204 33.8378C53.2084 33.6291 53.4489 33.5312 53.6577 33.6192C54.097 33.8043 54.4912 34.0293 54.8396 34.2956ZM56.2731 37.6982C56.495 37.6531 56.6384 37.4366 56.5933 37.2146C56.4979 36.7455 56.3555 36.3151 56.1661 35.9233C56.0675 35.7194 55.8222 35.634 55.6183 35.7326C55.4143 35.8312 55.329 36.0765 55.4276 36.2804C55.5865 36.6091 55.7074 36.9744 55.7894 37.378C55.8345 37.6 56.0511 37.7433 56.2731 37.6982Z" fill="#1A2E52"/>
<path fill-rule="evenodd" clip-rule="evenodd" d="M60.7093 53.5346C59.0894 53.5404 57.4695 53.5453 55.8515 53.5512C54.5823 53.555 53.3111 53.5842 52.0418 53.5628C49.9119 53.5278 47.3598 54.0125 45.8036 52.1147C45.2869 51.483 45.0183 50.6753 44.9111 49.8636C44.7488 48.6305 44.9294 47.3887 44.9401 46.1527C44.9555 43.9979 46.8266 42.2286 49.0956 42.2208C50.6035 42.216 52.1123 42.2111 53.6202 42.2052C54.8363 42.2014 56.0525 42.1984 57.2676 42.1945C58.4306 42.1906 59.7415 42.0184 60.8822 42.1751C61.3189 42.2354 61.7564 42.4262 62.0221 42.7804C62.3032 43.1551 62.3582 43.6544 62.3408 44.1235C62.25 46.7668 62.2781 49.4227 62.2578 52.0709C62.251 52.8728 61.5546 53.5317 60.7093 53.5346Z" fill="#1A2E52"/>
<path fill-rule="evenodd" clip-rule="evenodd" d="M53.5924 48.0659C53.5837 48.3032 53.5353 48.5566 53.4416 48.8262C52.9476 50.2347 51.1931 50.78 50.0554 49.8551C49.4599 49.3724 49.137 48.5485 49.2366 47.767C49.5952 44.9731 53.6794 45.6254 53.5924 48.0659Z" fill="#E1F4FF"/>
</svg>
